<svg width="24" height="24" viewBox="0 0 24 24" fill="none" xmlns="http://www.w3.org/2000/svg">
<path fill-rule="evenodd" clip-rule="evenodd" d="M17 1.25C14.713 1.25 12.7379 2.58514 11.8116 4.51848C11.1244 3.74058 10.1195 3.25 9 3.25H1.25V18.75H8C9.42287 18.75 10.8186 19.5958 11.0058 21.093L11.0879 21.75H13.1621L13.2442 21.093C13.4295 19.6108 14.7146 18.75 16.5 18.75H22.75V3.25H18.75V1.25H17ZM17 2.75C14.6528 2.75 12.75 4.65279 12.75 7V17.0775C13.6214 15.881 15.04 14.9496 17.25 14.7783V2.75H17ZM9 4.75C10.2426 4.75 11.25 5.75736 11.25 7V18.4713C10.3465 17.6442 9.10499 17.25 8 17.25H2.75V4.75H9ZM16.5 17.25C15.6843 17.25 14.8685 17.4046 14.1477 17.7257C14.8372 16.9172 15.9894 16.25 18 16.25H18.75V4.75H21.25V17.25H16.5Z" fill="#1E4635" style="fill:#1E4635;fill:color(display-p3 0.1176 0.2745 0.2078);fill-opacity:1;"/>
</svg>
