<svg width="24" height="24" viewBox="0 0 24 24" fill="none" xmlns="http://www.w3.org/2000/svg">
<path d="M8.95205 3.2637C9.90546 2.93111 10.9308 2.75 12 2.75H12.75V1.25H12C10.7603 1.25 9.56805 1.46016 8.45797 1.84741C4.26216 3.31111 1.25 7.30283 1.25 12C1.25 17.9371 6.06294 22.75 12 22.75C16.6818 22.75 20.6627 19.7575 22.1381 15.5833C22.5346 14.4615 22.75 13.2551 22.75 12V11.25H21.25V12C21.25 13.0825 21.0644 14.12 20.7239 15.0834C19.4537 18.6771 16.0263 21.25 12 21.25C6.89137 21.25 2.75 17.1086 2.75 12C2.75 7.96042 5.33988 4.5238 8.95205 3.2637Z" fill="#0C546E" style="fill:#0C546E;fill:color(display-p3 0.0472 0.3305 0.4328);fill-opacity:1;"/>
<path d="M15.5657 5.26516L16.7647 2.33428L15.3764 1.7663L14.1774 4.69718L15.5657 5.26516Z" fill="#0C546E" style="fill:#0C546E;fill:color(display-p3 0.0472 0.3305 0.4328);fill-opacity:1;"/>
<path d="M17.8926 7.16805L20.1318 4.92887L19.0711 3.86821L16.832 6.10738L17.8926 7.16805Z" fill="#0C546E" style="fill:#0C546E;fill:color(display-p3 0.0472 0.3305 0.4328);fill-opacity:1;"/>
<path d="M19.2835 9.75902L22.2038 8.53444L21.6237 7.15113L18.7034 8.37572L19.2835 9.75902Z" fill="#0C546E" style="fill:#0C546E;fill:color(display-p3 0.0472 0.3305 0.4328);fill-opacity:1;"/>
<path d="M16.0607 15L12.75 11.6893V7.25H11.25V12.3107L15 16.0607L16.0607 15Z" fill="#0C546E" style="fill:#0C546E;fill:color(display-p3 0.0472 0.3305 0.4328);fill-opacity:1;"/>
</svg>
