<svg width="24" height="24" viewBox="0 0 24 24" fill="none" xmlns="http://www.w3.org/2000/svg">
<path fill-rule="evenodd" clip-rule="evenodd" d="M6.32856 4.67403L7.00276 4.34547L6.34563 2.99707L5.67144 3.32563C4.24175 4.02238 3.12735 4.57065 2.39741 5.22913C2.01163 5.57715 1.71334 5.97043 1.51807 6.44864C1.32517 6.92108 1.25 7.43443 1.25 7.99983V14.9998C1.25 16.6144 1.65456 17.8585 2.558 18.6798C3.44691 19.4879 4.67181 19.7498 6 19.7498C7.32819 19.7498 8.55309 19.4879 9.44201 18.6798C10.3454 17.8585 10.75 16.6144 10.75 14.9998V12.7498H13.25V14.9998C13.25 16.6144 13.6546 17.8585 14.558 18.6798C15.4469 19.4879 16.6718 19.7498 18 19.7498C19.3282 19.7498 20.5531 19.4879 21.442 18.6798C22.3454 17.8585 22.75 16.6144 22.75 14.9998V7.99983C22.75 7.43443 22.6748 6.92108 22.4819 6.44864C22.2867 5.97043 21.9884 5.57715 21.6026 5.22913C20.8727 4.57065 19.7582 4.02238 18.3286 3.32563L17.6544 2.99707L16.9972 4.34547L17.6714 4.67403C19.1757 5.4071 20.0612 5.85883 20.5978 6.3429C20.8453 6.56615 20.9969 6.77978 21.0932 7.01567C21.1919 7.25732 21.25 7.56524 21.25 7.99983V11.2498H2.75V7.99983C2.75 7.56524 2.8081 7.25732 2.90677 7.01567C3.00308 6.77978 3.15468 6.56615 3.40216 6.3429C3.93875 5.85883 4.82435 5.4071 6.32856 4.67403ZM3.567 17.5699C3.09544 17.1412 2.75 16.3853 2.75 14.9998V12.7498H9.25V14.9998C9.25 16.3853 8.90456 17.1412 8.433 17.5699C7.94691 18.0118 7.17181 18.2498 6 18.2498C4.82819 18.2498 4.05309 18.0118 3.567 17.5699ZM15.567 17.5699C15.0954 17.1412 14.75 16.3853 14.75 14.9998V12.7498H21.25V14.9998C21.25 16.3853 20.9046 17.1412 20.433 17.5699C19.9469 18.0118 19.1718 18.2498 18 18.2498C16.8282 18.2498 16.0531 18.0118 15.567 17.5699Z" fill="#6F260B" style="fill:#6F260B;fill:color(display-p3 0.4367 0.1483 0.0433);fill-opacity:1;"/>
</svg>
