<svg width="24" height="24" viewBox="0 0 24 24" fill="none" xmlns="http://www.w3.org/2000/svg">
<path fill-rule="evenodd" clip-rule="evenodd" d="M12.3798 19.5462C10.4435 19.4877 8.3954 18.4899 6.28391 16.4249C4.8657 18.372 4.08351 20.0745 3.71391 21.2287L3.48518 21.9429L2.05664 21.4855L2.28537 20.7712C2.72371 19.4023 3.63411 17.4622 5.25442 15.2938C3.6107 13.2104 2.99836 11.2629 3.34092 9.48965C3.7065 7.59715 5.11571 6.13893 6.93347 5.06548C10.5592 2.92436 16.2687 2.02989 21.0109 2.29547L21.6809 2.333L21.7178 3.00304C21.9891 7.92599 20.5335 13.6144 17.7455 16.8727C16.3356 18.5204 14.5231 19.6109 12.3798 19.5462ZM12.5727 8.38328C9.84847 10.2693 7.77478 12.2336 6.21603 14.0834C4.9126 12.3332 4.59471 10.9077 4.81369 9.77416C5.06408 8.47798 6.06146 7.32246 7.6962 6.35708C10.8139 4.51595 15.8297 3.62666 20.2457 3.76357C20.3391 8.25258 18.9517 13.1559 16.6058 15.8975C15.3895 17.319 13.9782 18.0938 12.4251 18.0469C10.9632 18.0027 9.20874 17.2267 7.21089 15.2323C8.6994 13.4325 10.7202 11.4902 13.4265 9.61657L14.0432 9.18966L13.1894 7.95637L12.5727 8.38328Z" fill="#1E4635" style="fill:#1E4635;fill:color(display-p3 0.1176 0.2745 0.2078);fill-opacity:1;"/>
</svg>
