<svg preserveAspectRatio="none" width="100%" height="100%" overflow="visible" style="display: block;" viewBox="0 0 12 6.10742" fill="none" xmlns="http://www.w3.org/2000/svg">
<path id="Union" d="M11.75 5.10742C11.888 5.10742 11.9999 5.21946 12 5.35742V5.85742C12 5.99549 11.8881 6.10742 11.75 6.10742H6.25C6.11193 6.10742 6 5.99549 6 5.85742V5.35742C6.00013 5.21946 6.11201 5.10742 6.25 5.10742H11.75ZM11.75 2.70801C11.8881 2.70801 12 2.81994 12 2.95801V3.45801C11.9997 3.59585 11.8879 3.70801 11.75 3.70801H0.25C0.112092 3.70801 0.000263514 3.59585 0 3.45801V2.95801C0 2.81994 0.111929 2.70801 0.25 2.70801H11.75ZM5.75 0C5.88795 6.42764e-08 5.9998 0.112097 6 0.25V0.75C6 0.888071 5.88807 1 5.75 1H0.25C0.111929 1 0 0.888071 0 0.75V0.25C0.000197706 0.112097 0.112051 4.01728e-09 0.25 0H5.75Z" fill="var(--fill-0, black)" style="fill:black;fill-opacity:1;"/>
</svg>
