<svg width="24" height="24" viewBox="0 0 24 24" fill="none" xmlns="http://www.w3.org/2000/svg">
<path fill-rule="evenodd" clip-rule="evenodd" d="M12.0223 4.92733L11.957 4.25H10.043L9.9776 4.92799L9.97707 4.93315L9.97433 4.95853C9.97172 4.98196 9.9675 5.01817 9.9614 5.06584C9.94919 5.16123 9.9295 5.30216 9.90017 5.47808C9.84136 5.83079 9.74456 6.31973 9.59331 6.8621C9.28377 7.97205 8.77488 9.19894 7.98691 9.98691C7.19894 10.7749 5.97205 11.2838 4.8621 11.5933C4.31973 11.7446 3.83079 11.8414 3.47808 11.9002C3.30216 11.9295 3.16123 11.9492 3.06584 11.9614C3.01817 11.9675 2.98196 11.9717 2.95853 11.9743L2.93315 11.9771L2.92733 11.9777L2.25 12.043V13.957L2.92799 14.0224L2.93315 14.0229L2.95853 14.0257C2.98196 14.0283 3.01817 14.0325 3.06584 14.0386C3.16123 14.0508 3.30216 14.0705 3.47808 14.0998C3.83079 14.1586 4.31973 14.2554 4.8621 14.4067C5.97205 14.7162 7.19894 15.2251 7.98691 16.0131C8.77488 16.8011 9.28377 18.028 9.59331 19.1379C9.74456 19.6803 9.84136 20.1692 9.90017 20.5219C9.9295 20.6978 9.94919 20.8388 9.9614 20.9342C9.9675 20.9818 9.97172 21.018 9.97433 21.0415L9.97707 21.0669L9.97767 21.0727L10.043 21.75H11.957L12.0224 21.072L12.0229 21.0669L12.0257 21.0415C12.0283 21.018 12.0325 20.9818 12.0386 20.9342C12.0508 20.8388 12.0705 20.6978 12.0998 20.5219C12.1586 20.1692 12.2554 19.6803 12.4067 19.1379C12.7162 18.028 13.2251 16.8011 14.0131 16.0131C14.8011 15.2251 16.028 14.7162 17.1379 14.4067C17.6803 14.2554 18.1692 14.1586 18.5219 14.0998C18.6978 14.0705 18.8388 14.0508 18.9342 14.0386C18.9818 14.0325 19.018 14.0283 19.0415 14.0257L19.0669 14.0229L19.0727 14.0223L19.75 13.957V12.043L19.072 11.9776L19.0669 11.9771L19.0415 11.9743C19.018 11.9717 18.9818 11.9675 18.9342 11.9614C18.8388 11.9492 18.6978 11.9295 18.5219 11.9002C18.1692 11.8414 17.6803 11.7446 17.1379 11.5933C16.028 11.2838 14.8011 10.7749 14.0131 9.98691C13.2251 9.19894 12.7162 7.97205 12.4067 6.8621C12.2554 6.31973 12.1586 5.83079 12.0998 5.47808C12.0705 5.30216 12.0508 5.16123 12.0386 5.06584C12.0325 5.01817 12.0283 4.98196 12.0257 4.95853L12.0229 4.93315L12.0223 4.92733ZM9.04757 11.0476C10.0733 10.0219 10.6625 8.56417 11 7.39933C11.3375 8.56417 11.9267 10.0219 12.9524 11.0476C13.9781 12.0733 15.4358 12.6625 16.6007 13C15.4358 13.3375 13.9781 13.9267 12.9524 14.9524C11.9267 15.9781 11.3375 17.4358 11 18.6007C10.6625 17.4358 10.0733 15.9781 9.04757 14.9524C8.02189 13.9267 6.56417 13.3375 5.39933 13C6.56417 12.6625 8.02189 12.0733 9.04757 11.0476Z" fill="black" style="fill:black;fill-opacity:1;"/>
<path d="M19.25 4.75V2.25H17.75V4.75H15.25V6.25H17.75V8.75H19.25V6.25H21.75V4.75H19.25Z" fill="black" style="fill:black;fill-opacity:1;"/>
</svg>
