<svg width="22" height="24" viewBox="0 0 22 24" fill="none" xmlns="http://www.w3.org/2000/svg">
<path d="M13.7711 6.49201C13.7542 6.42247 13.7478 6.35144 13.7519 6.27892C13.7561 6.20639 13.7456 6.13593 13.7207 6.06752C13.6957 5.99911 13.6749 5.93012 13.6581 5.86056C13.6413 5.79099 13.633 5.72023 13.6332 5.64826C13.6334 5.5763 13.6282 5.50509 13.6177 5.43464C13.6072 5.36418 13.5913 5.29449 13.57 5.22557C13.5487 5.15665 13.5345 5.08671 13.5276 5.01575C13.5206 4.94479 13.5202 4.87292 13.5262 4.80013C13.5322 4.72734 13.5179 4.65743 13.4833 4.59038C13.4487 4.52334 13.4297 4.45409 13.4263 4.38263C13.4229 4.31117 13.411 4.24091 13.3906 4.17186C13.3702 4.1028 13.3633 4.03184 13.3698 3.95898C13.3764 3.88612 13.3718 3.81483 13.3561 3.74511C13.3404 3.67539 13.3247 3.60567 13.3091 3.53594C13.2935 3.46621 13.2757 3.39679 13.2558 3.32767C13.2359 3.25854 13.2331 3.18699 13.2475 3.11302C13.2619 3.03904 13.251 2.96858 13.2148 2.90163C13.1786 2.83469 13.1617 2.76505 13.1642 2.69272C13.1667 2.62039 13.1586 2.54966 13.1397 2.48054C13.1209 2.41141 13.1161 2.34016 13.1254 2.26678C13.1346 2.19339 13.1202 2.12352 13.082 2.05717C13.0438 1.99081 13.0224 1.92199 13.0179 1.85071C13.0134 1.77943 13.0063 1.70851 12.9967 1.63795C12.987 1.5674 12.9741 1.49738 12.9579 1.42791C12.9416 1.35844 12.9345 1.28706 12.9363 1.21377C12.9382 1.14047 12.9232 1.07098 12.8913 1.00529C12.8594 0.939604 12.8299 0.873709 12.803 0.807606C12.776 0.741503 12.7444 0.67484 12.7082 0.607616C12.6721 0.540392 12.6149 0.50389 12.5367 0.498111C12.4586 0.492332 12.3831 0.486908 12.3102 0.481841C12.2374 0.476773 12.1646 0.485507 12.0918 0.508043C12.019 0.530579 11.9663 0.574686 11.9337 0.640365C11.9011 0.706043 11.8716 0.77192 11.8453 0.837996C11.819 0.904073 11.7855 0.968399 11.7447 1.03098C11.7039 1.09355 11.6866 1.16251 11.6928 1.23785C11.699 1.31319 11.6817 1.3827 11.641 1.44637C11.6002 1.51005 11.5733 1.57704 11.5604 1.64734C11.5474 1.71764 11.5438 1.7898 11.5495 1.86382C11.5552 1.93783 11.55 2.00954 11.534 2.07896C11.518 2.14837 11.4919 2.21583 11.4558 2.28133C11.4198 2.34683 11.3981 2.41527 11.391 2.48666C11.3838 2.55804 11.3731 2.6286 11.3588 2.69833C11.3445 2.76805 11.3278 2.83747 11.3088 2.90657C11.2898 2.97566 11.2713 3.04477 11.2533 3.11388C11.2352 3.183 11.2162 3.25193 11.1964 3.32068C11.1765 3.38944 11.1685 3.46052 11.1724 3.53393C11.1763 3.60734 11.1672 3.67822 11.1452 3.74655C11.1231 3.81488 11.1103 3.88502 11.1067 3.95697C11.1032 4.02892 11.0857 4.09814 11.0543 4.16464C11.0229 4.23114 11.0017 4.29963 10.9906 4.37012C10.9796 4.44061 10.9667 4.51073 10.9519 4.58047C10.9371 4.65022 10.9256 4.72063 10.9175 4.79169C10.9095 4.86276 10.8965 4.93287 10.8786 5.00202C10.8608 5.07117 10.8429 5.14031 10.8249 5.20943C10.8068 5.27855 10.7895 5.3478 10.7727 5.41716C10.7559 5.48653 10.7425 5.55654 10.7324 5.62721C10.7222 5.69787 10.7119 5.76851 10.7015 5.83912C10.6911 5.90972 10.6779 5.97978 10.6619 6.04929C10.6458 6.1188 10.6289 6.18816 10.6112 6.25737C10.5935 6.32657 10.5685 6.39424 10.5364 6.46036C10.5043 6.52648 10.4805 6.5941 10.4651 6.66321C10.4498 6.73233 10.4339 6.8025 10.4174 6.87372C10.401 6.94495 10.3646 7.00609 10.3081 7.05715C10.2516 7.1082 10.1862 7.14194 10.1118 7.15835C10.0375 7.17476 9.9643 7.1793 9.89232 7.17197C9.82033 7.16465 9.75137 7.14589 9.68545 7.1157C9.61952 7.08551 9.55541 7.05123 9.49312 7.01287C9.43082 6.97451 9.36691 6.93813 9.30139 6.90372C9.23587 6.86932 9.17232 6.8319 9.11075 6.79147C9.04917 6.75103 8.9888 6.70886 8.92962 6.66495C8.87044 6.62104 8.80487 6.58643 8.73292 6.56114C8.66097 6.53584 8.59133 6.50717 8.52401 6.47513C8.45668 6.44309 8.39352 6.40499 8.33453 6.36081C8.27553 6.31663 8.21518 6.27443 8.15347 6.2342C8.09176 6.19398 8.02899 6.1553 7.96517 6.11815C7.90135 6.08101 7.83796 6.04323 7.77501 6.00482C7.71205 5.96641 7.65337 5.92177 7.59897 5.8709C7.54457 5.82002 7.48256 5.78024 7.41294 5.75155C7.34331 5.72286 7.27798 5.68792 7.21695 5.64671C7.15591 5.6055 7.09381 5.56586 7.03063 5.52777C6.96745 5.48969 6.9051 5.4504 6.84358 5.40991C6.78205 5.36941 6.72273 5.32571 6.6656 5.27881C6.60847 5.23191 6.54177 5.19891 6.4655 5.17982C6.38923 5.16072 6.32721 5.12091 6.27945 5.06038C6.23168 4.99985 6.17607 4.9507 6.11263 4.91294C6.04918 4.87518 5.98273 4.84188 5.91328 4.81303C5.84383 4.78418 5.77488 4.75464 5.70641 4.7244C5.63794 4.69416 5.57206 4.66034 5.50875 4.62293C5.44544 4.58552 5.38132 4.54937 5.31638 4.51448C5.25144 4.47958 5.19184 4.43525 5.13756 4.38148C5.08329 4.32771 5.02018 4.28937 4.94824 4.26645C4.87631 4.24352 4.80459 4.21948 4.73309 4.19433C4.66159 4.16917 4.58927 4.16713 4.51612 4.18822C4.44297 4.2093 4.37524 4.23981 4.31294 4.27974C4.25063 4.31966 4.20699 4.37296 4.18202 4.43961C4.15704 4.50627 4.1298 4.57362 4.1003 4.64168C4.0708 4.70973 4.07737 4.77484 4.12 4.83699C4.16264 4.89914 4.19768 4.96333 4.22514 5.02956C4.25261 5.09579 4.28395 5.16037 4.31918 5.22329C4.35441 5.28622 4.39813 5.34412 4.45034 5.397C4.50254 5.44988 4.54334 5.50959 4.57273 5.57613C4.60212 5.64267 4.63632 5.70627 4.67531 5.76692C4.7143 5.82758 4.74936 5.89076 4.78049 5.95647C4.81162 6.02218 4.85615 6.07946 4.91409 6.12831C4.97202 6.17717 5.02098 6.23169 5.06095 6.29188C5.10092 6.35207 5.13775 6.41431 5.17144 6.4786C5.20513 6.54288 5.24058 6.60598 5.27778 6.66789C5.31499 6.7298 5.35574 6.78948 5.40002 6.84691C5.44431 6.90434 5.49137 6.96001 5.54122 7.01392C5.59107 7.06782 5.63845 7.1233 5.68334 7.18035C5.72823 7.23739 5.77307 7.29447 5.81787 7.35158C5.86266 7.40869 5.89623 7.47291 5.91859 7.54422C5.94095 7.61553 5.98247 7.67471 6.04313 7.72178C6.10379 7.76884 6.15223 7.82364 6.18844 7.88618C6.22465 7.94873 6.26382 8.0094 6.30593 8.0682C6.34805 8.127 6.38662 8.18806 6.42163 8.25136C6.45664 8.31466 6.49741 8.37431 6.54395 8.43032C6.59048 8.48633 6.63001 8.54677 6.66255 8.61164C6.69509 8.67651 6.73529 8.73652 6.78315 8.79169C6.83102 8.84685 6.86932 8.90807 6.89805 8.97535C6.92679 9.04262 6.97191 9.09952 7.03342 9.14605C7.09492 9.19258 7.13615 9.25195 7.15711 9.32415C7.17806 9.39635 7.21034 9.46138 7.25393 9.51925C7.29752 9.57712 7.35069 9.62893 7.41342 9.67468C7.47616 9.72044 7.52648 9.77405 7.5644 9.83554C7.60232 9.89702 7.63746 9.96024 7.66983 10.0252C7.70219 10.0901 7.73033 10.1561 7.75425 10.2232C7.77816 10.2902 7.80211 10.356 7.8261 10.4205C7.85009 10.4851 7.85289 10.5511 7.8345 10.6187C7.8161 10.6863 7.78633 10.7488 7.7452 10.8064C7.70406 10.8639 7.65645 10.9172 7.60235 10.9664C7.54825 11.0156 7.48936 11.0592 7.42568 11.0973C7.362 11.1354 7.30038 11.1759 7.24083 11.219C7.18128 11.262 7.11977 11.3027 7.0563 11.341C6.99282 11.3792 6.93647 11.4262 6.88725 11.4818C6.83803 11.5374 6.77957 11.5818 6.71187 11.6149C6.64417 11.6481 6.58188 11.6878 6.52501 11.7341C6.46813 11.7804 6.40948 11.8246 6.34907 11.8666C6.28865 11.9086 6.23211 11.9553 6.17943 12.0067C6.12676 12.0581 6.07482 12.1105 6.02363 12.1637C5.97244 12.2169 5.91742 12.2655 5.85857 12.3094C5.79971 12.3533 5.73673 12.3922 5.66962 12.426C5.60251 12.4598 5.54246 12.5023 5.48946 12.5533C5.43645 12.6043 5.37694 12.6474 5.31091 12.6826C5.24489 12.7178 5.18415 12.7594 5.12871 12.8074C5.07327 12.8555 5.01607 12.9014 4.95712 12.9452C4.89817 12.989 4.84027 13.034 4.78341 13.0804C4.72656 13.1267 4.67155 13.1753 4.61838 13.2261C4.5652 13.2769 4.50736 13.3221 4.44485 13.3615C4.38234 13.4009 4.31766 13.4377 4.25081 13.4719C4.18395 13.506 4.12143 13.5455 4.06324 13.5902C4.00505 13.6349 3.94589 13.6784 3.88576 13.7208C3.82563 13.7631 3.77176 13.8131 3.72415 13.8707C3.67653 13.9283 3.61746 13.9719 3.54691 14.0015C3.47637 14.0312 3.41673 14.0742 3.36801 14.1304C3.31928 14.1866 3.26629 14.2377 3.20903 14.2835C3.15176 14.3294 3.09222 14.3724 3.03039 14.4127C2.96857 14.453 2.90126 14.4866 2.82848 14.5135C2.75569 14.5404 2.69017 14.5763 2.6319 14.6212C2.57364 14.6661 2.52151 14.7183 2.47552 14.7777C2.42953 14.8371 2.3731 14.8839 2.30621 14.9183C2.23933 14.9527 2.174 14.9887 2.11023 15.0263C2.04646 15.064 1.98871 15.1092 1.93697 15.162C1.88524 15.2148 1.83033 15.2636 1.77225 15.3084C1.71417 15.3532 1.65938 15.4018 1.60787 15.4542C1.55636 15.5066 1.50265 15.5563 1.44674 15.6035C1.39082 15.6506 1.32564 15.6873 1.25119 15.7136C1.17674 15.74 1.11193 15.7774 1.05676 15.8259C1.0016 15.8744 0.949138 15.9256 0.899385 15.9795C0.849632 16.0335 0.797453 16.0849 0.742848 16.1339C0.688243 16.1828 0.635148 16.2344 0.583562 16.2885C0.531976 16.3427 0.499262 16.4069 0.485418 16.4813C0.471574 16.5557 0.476005 16.6281 0.498712 16.6987C0.521418 16.7692 0.558919 16.8309 0.611214 16.8838C0.66351 16.9368 0.723427 16.9733 0.790968 16.9935C0.858508 17.0137 0.927834 17.0204 0.998945 17.0137C1.07006 17.007 1.14265 16.9999 1.21672 16.9924C1.29079 16.9849 1.3625 16.9679 1.43184 16.9413C1.50117 16.9148 1.57257 16.8944 1.64604 16.8803C1.71951 16.8661 1.79079 16.8454 1.85986 16.8181C1.92894 16.7908 2.00092 16.7712 2.0758 16.7592C2.15069 16.7472 2.22097 16.7231 2.28665 16.6869C2.35233 16.6506 2.42127 16.6226 2.49346 16.6028C2.56565 16.5831 2.63777 16.5634 2.70982 16.544C2.78187 16.5245 2.85482 16.507 2.92867 16.4913C3.00252 16.4757 3.07359 16.4533 3.14188 16.4242C3.21017 16.395 3.27871 16.3662 3.34751 16.3376C3.41631 16.309 3.48698 16.2854 3.55952 16.2666C3.63206 16.2479 3.70158 16.2216 3.76807 16.1879C3.83457 16.1542 3.90132 16.1211 3.96832 16.0886C4.03531 16.0561 4.10279 16.0249 4.17076 15.9948C4.23872 15.9647 4.31021 15.9433 4.38524 15.9308C4.46028 15.9182 4.53173 15.8967 4.59959 15.8662C4.66745 15.8358 4.7339 15.8018 4.79893 15.7643C4.86396 15.7267 4.93235 15.6976 5.00412 15.677C5.07588 15.6563 5.14793 15.6364 5.22025 15.6172C5.29257 15.598 5.36513 15.5801 5.43792 15.5633C5.51072 15.5465 5.58259 15.525 5.65355 15.4989C5.7245 15.4727 5.79676 15.4675 5.87033 15.4832C5.9439 15.499 6.01418 15.5213 6.08115 15.5504C6.14813 15.5794 6.20206 15.6232 6.24294 15.6818C6.28382 15.7403 6.32225 15.8026 6.35821 15.8685C6.39417 15.9344 6.39594 16.0012 6.3635 16.0689C6.33106 16.1366 6.31094 16.2071 6.30313 16.2805C6.29532 16.3538 6.26879 16.4199 6.22352 16.4787C6.17826 16.5376 6.13775 16.5983 6.102 16.6608C6.06625 16.7233 6.0411 16.7909 6.02657 16.8635C6.01204 16.9361 5.97836 16.9996 5.92553 17.0541C5.87271 17.1086 5.83073 17.1682 5.7996 17.233C5.76847 17.2977 5.73744 17.3625 5.70649 17.4273C5.67555 17.4922 5.63808 17.5539 5.59408 17.6125C5.55008 17.6712 5.52384 17.7382 5.51537 17.8137C5.5069 17.8893 5.4847 17.9583 5.44879 18.0207C5.41287 18.0832 5.37068 18.1427 5.3222 18.1992C5.27373 18.2557 5.23863 18.3185 5.2169 18.3877C5.19517 18.457 5.16615 18.5228 5.12983 18.5853C5.09352 18.6478 5.06074 18.7118 5.03149 18.7773C5.00225 18.8429 4.96065 18.9026 4.9067 18.9566C4.85275 19.0105 4.81717 19.0732 4.79996 19.1446C4.78275 19.216 4.74981 19.2799 4.70115 19.3364C4.65249 19.393 4.62412 19.4589 4.61605 19.5343C4.60798 19.6096 4.58739 19.6791 4.55428 19.7428C4.52118 19.8065 4.486 19.8693 4.44876 19.9311C4.41151 19.9929 4.37864 20.0566 4.35012 20.1223C4.32161 20.188 4.28433 20.2505 4.23828 20.3099C4.19223 20.3693 4.16043 20.4342 4.14289 20.5044C4.12535 20.5747 4.11191 20.646 4.10257 20.7183C4.09323 20.7906 4.10551 20.8594 4.13943 20.9248C4.17335 20.9902 4.22204 21.0409 4.2855 21.0768C4.34896 21.1127 4.41253 21.1452 4.47621 21.1743C4.53989 21.2034 4.60816 21.2183 4.68102 21.219C4.75388 21.2197 4.82379 21.2031 4.89076 21.1693C4.95773 21.1354 5.01574 21.0904 5.06479 21.0342C5.11384 20.9781 5.16764 20.9281 5.22619 20.8843C5.28473 20.8405 5.34345 20.7966 5.40233 20.7526C5.46121 20.7086 5.51743 20.6619 5.57098 20.6124C5.62453 20.5628 5.67982 20.515 5.73686 20.4689C5.79389 20.4228 5.8512 20.377 5.90879 20.3313C5.96637 20.2857 6.02103 20.2371 6.07277 20.1855C6.12452 20.134 6.17734 20.0835 6.23124 20.0341C6.28514 19.9847 6.33732 19.9338 6.38778 19.8812C6.43824 19.8287 6.49512 19.7822 6.55843 19.7419C6.62174 19.7016 6.68028 19.6567 6.73405 19.6072C6.78781 19.5578 6.84076 19.5075 6.89289 19.4564C6.94502 19.4054 6.99711 19.3543 7.04916 19.3031C7.1012 19.252 7.14793 19.1956 7.18934 19.134C7.23075 19.0724 7.28038 19.0188 7.33823 18.9734C7.39608 18.928 7.45558 18.8841 7.51671 18.8419C7.57785 18.7997 7.63884 18.7574 7.69967 18.7149C7.76051 18.6724 7.80938 18.6181 7.8463 18.5521C7.88322 18.486 7.93293 18.4326 7.99544 18.3917C8.05795 18.3509 8.11772 18.3073 8.17475 18.2611C8.23178 18.2148 8.28235 18.1622 8.32645 18.1033C8.37055 18.0443 8.41945 17.9901 8.47315 17.9405C8.52685 17.891 8.58726 17.8481 8.65439 17.8118C8.72151 17.7755 8.77551 17.7262 8.81638 17.6641C8.85725 17.602 8.90663 17.5482 8.96454 17.5027C9.02244 17.4572 9.08286 17.4144 9.1458 17.3743C9.20873 17.3342 9.26262 17.2846 9.30746 17.2257C9.35231 17.1667 9.40654 17.1182 9.47016 17.08C9.53379 17.0418 9.60028 17.0049 9.66964 16.9692C9.739 16.9336 9.81131 16.9261 9.88657 16.9469C9.96183 16.9677 10.0321 16.9954 10.0974 17.0299C10.1627 17.0644 10.2167 17.1106 10.2592 17.1683C10.3018 17.226 10.3304 17.2898 10.3451 17.3595C10.3598 17.4293 10.3767 17.4983 10.3956 17.5665C10.4145 17.6348 10.4438 17.701 10.4836 17.7651C10.5234 17.8293 10.5428 17.898 10.5419 17.9712C10.5411 18.0444 10.556 18.1142 10.5866 18.1805C10.6173 18.2469 10.6388 18.3152 10.651 18.3855C10.6633 18.4558 10.672 18.5269 10.6771 18.5988C10.6823 18.6706 10.7 18.7398 10.7301 18.8062C10.7603 18.8727 10.7865 18.94 10.8089 19.0081C10.8313 19.0763 10.8501 19.1452 10.8653 19.2148C10.8806 19.2845 10.8848 19.3566 10.8781 19.431C10.8713 19.5054 10.8773 19.5771 10.896 19.646C10.9147 19.715 10.9349 19.7836 10.9567 19.8518C10.9785 19.9201 11.005 19.9873 11.0364 20.0535C11.0677 20.1197 11.0911 20.1876 11.1066 20.2572C11.122 20.3269 11.1296 20.3982 11.1294 20.4712C11.1292 20.5442 11.1393 20.615 11.1596 20.6836C11.1798 20.7522 11.2 20.8208 11.2201 20.8894C11.2402 20.9581 11.261 21.0265 11.2825 21.0948C11.3041 21.1631 11.3218 21.2323 11.3357 21.3024C11.3496 21.3724 11.3686 21.4414 11.3926 21.5092C11.4166 21.5771 11.4352 21.6461 11.4484 21.7162C11.4615 21.7863 11.4683 21.8578 11.4688 21.9308C11.4693 22.0038 11.4916 22.0718 11.5356 22.135C11.5797 22.1982 11.6022 22.2662 11.603 22.3392C11.6038 22.4122 11.6112 22.4838 11.6252 22.554C11.6392 22.6242 11.6603 22.6925 11.6885 22.7589C11.7167 22.8253 11.7394 22.8933 11.7568 22.963C11.7741 23.0327 11.7968 23.1008 11.8248 23.1674C11.8529 23.2341 11.8875 23.2991 11.9286 23.3627C11.9697 23.4262 12.029 23.4641 12.1064 23.4764C12.1838 23.4887 12.2593 23.5012 12.3331 23.514C12.4068 23.5267 12.4791 23.5198 12.5499 23.4933C12.6208 23.4667 12.673 23.4219 12.7066 23.3587C12.7401 23.2956 12.7762 23.2334 12.8149 23.172C12.8536 23.1107 12.8838 23.0458 12.9055 22.9773C12.9271 22.9088 12.9365 22.8378 12.9334 22.7645C12.9303 22.6911 12.9468 22.6216 12.9828 22.5559C13.0188 22.4903 13.0327 22.4206 13.0244 22.3468C13.0162 22.2731 13.025 22.2022 13.0511 22.1343C13.0771 22.0664 13.0949 21.9971 13.1046 21.9265C13.1142 21.8559 13.1296 21.7862 13.1508 21.7173C13.172 21.6484 13.1862 21.5785 13.1935 21.5077C13.2007 21.4368 13.2061 21.3656 13.2097 21.294C13.2134 21.2224 13.2246 21.152 13.2435 21.0827C13.2624 21.0135 13.2831 20.9446 13.3055 20.8759C13.3278 20.8072 13.3443 20.7376 13.3548 20.6671C13.3654 20.5967 13.3629 20.5243 13.3476 20.45C13.3322 20.3757 13.3337 20.304 13.352 20.2346C13.3702 20.1653 13.3886 20.096 13.4069 20.0267C13.4253 19.9574 13.4423 19.8879 13.458 19.8183C13.4737 19.7486 13.4913 19.6792 13.511 19.6101C13.5307 19.541 13.5353 19.4696 13.5249 19.3961C13.5146 19.3225 13.5206 19.2514 13.5431 19.1827C13.5656 19.1141 13.5876 19.0453 13.6092 18.9765C13.6308 18.9077 13.6479 18.8382 13.6606 18.768C13.6732 18.6979 13.6773 18.6265 13.6728 18.5538C13.6684 18.4812 13.6763 18.4103 13.6966 18.3413C13.7169 18.2723 13.7361 18.2031 13.7543 18.1338C13.7724 18.0645 13.7755 17.9929 13.7637 17.9192C13.7519 17.8454 13.7535 17.7736 13.7687 17.7039C13.7838 17.6341 13.8015 17.5647 13.8217 17.4957C13.8419 17.4267 13.8529 17.3563 13.8548 17.2845C13.8566 17.2128 13.8681 17.1425 13.8892 17.0736C13.9104 17.0047 13.9331 16.9361 13.9573 16.8676C13.9815 16.7992 13.9945 16.7291 13.9962 16.6574C13.998 16.5856 14.0066 16.5149 14.022 16.4451C14.0375 16.3754 14.0427 16.3041 14.0376 16.2313C14.0326 16.1584 14.0467 16.0887 14.0801 16.0222C14.1135 15.9556 14.1268 15.8849 14.1199 15.8099C14.1131 15.7349 14.1318 15.6673 14.176 15.607C14.2203 15.5467 14.2739 15.4986 14.3368 15.4626C14.3998 15.4266 14.4649 15.3959 14.5321 15.3707C14.5994 15.3454 14.6715 15.3311 14.7482 15.3276C14.825 15.3241 14.8944 15.3445 14.9563 15.3886C15.0182 15.4327 15.0816 15.4723 15.1463 15.5074C15.211 15.5426 15.2763 15.577 15.3421 15.6108C15.4079 15.6445 15.4723 15.6807 15.5353 15.7193C15.5983 15.7578 15.6619 15.7953 15.7262 15.8317C15.7905 15.868 15.8588 15.8978 15.9309 15.921C16.0031 15.9442 16.0709 15.9747 16.1343 16.0125C16.1977 16.0503 16.2654 16.0809 16.3375 16.1043C16.4096 16.1276 16.4739 16.1639 16.5304 16.2133C16.5869 16.2627 16.6477 16.3051 16.7126 16.3404C16.7775 16.3758 16.847 16.4033 16.9213 16.4229C16.9956 16.4426 17.0643 16.4715 17.1276 16.5096C17.1908 16.5477 17.249 16.5944 17.302 16.6497C17.355 16.705 17.4172 16.7448 17.4886 16.7692C17.5601 16.7937 17.6311 16.8187 17.7018 16.8443C17.7725 16.87 17.8351 16.9092 17.8896 16.962C17.9441 17.0147 18.0072 17.0531 18.079 17.077C18.1507 17.1009 18.2209 17.1273 18.2897 17.1562C18.3584 17.1851 18.4231 17.2209 18.4836 17.2635C18.5441 17.3062 18.6084 17.3427 18.6764 17.3731C18.7445 17.4035 18.8104 17.4372 18.8744 17.4742C18.9383 17.5112 19.0036 17.5457 19.0705 17.5778C19.1373 17.6098 19.2007 17.6476 19.2607 17.691C19.3207 17.7344 19.3872 17.7669 19.4601 17.7884C19.5331 17.81 19.6022 17.8379 19.6675 17.8722C19.7328 17.9064 19.7936 17.9494 19.85 18.0013C19.9063 18.0531 19.9686 18.0947 20.0367 18.126C20.1048 18.1573 20.1773 18.1762 20.2543 18.1827C20.3314 18.1891 20.4059 18.1935 20.4778 18.1958C20.5498 18.1981 20.6158 18.1801 20.6757 18.1419C20.7357 18.1037 20.7953 18.0623 20.8544 18.0178C20.9136 17.9732 20.9507 17.9158 20.9659 17.8454C20.9811 17.775 20.9871 17.7028 20.9839 17.6289C20.9808 17.5549 20.955 17.4891 20.9066 17.4315C20.8582 17.3739 20.8124 17.316 20.7692 17.2579C20.726 17.1998 20.6877 17.1388 20.6543 17.0751C20.6209 17.0113 20.5887 16.9464 20.5578 16.8806C20.5269 16.8147 20.4886 16.7535 20.4428 16.697C20.3969 16.6406 20.3477 16.5863 20.295 16.5343C20.2423 16.4822 20.2029 16.4216 20.1769 16.3523C20.1509 16.283 20.1123 16.2219 20.0612 16.1689C20.01 16.116 19.9666 16.058 19.9309 15.995C19.8952 15.9321 19.8477 15.8767 19.7886 15.8291C19.7294 15.7814 19.6873 15.7227 19.6622 15.6527C19.6371 15.5828 19.5994 15.5211 19.5491 15.4676C19.4989 15.4141 19.4507 15.3593 19.4047 15.3031C19.3586 15.2468 19.32 15.1858 19.2887 15.1199C19.2574 15.054 19.2194 14.9925 19.1749 14.9353C19.1303 14.8781 19.0813 14.8238 19.028 14.7723C18.9747 14.7208 18.9256 14.6666 18.8808 14.6095C18.836 14.5525 18.7911 14.4956 18.7459 14.4388C18.7007 14.3819 18.6605 14.3219 18.6252 14.2587C18.5899 14.1954 18.5536 14.1328 18.5163 14.0708C18.479 14.0089 18.4396 13.9483 18.398 13.8892C18.3564 13.8301 18.3173 13.7693 18.2807 13.7069C18.2442 13.6444 18.1989 13.5876 18.1451 13.5365C18.0913 13.4854 18.0422 13.4311 17.998 13.3737C17.9538 13.3163 17.9157 13.2549 17.8837 13.1894C17.8517 13.124 17.814 13.0623 17.7707 13.0043C17.7273 12.9463 17.6869 12.8864 17.6494 12.8246C17.612 12.7627 17.5681 12.705 17.5179 12.6515C17.4677 12.5981 17.4225 12.5413 17.3823 12.4812C17.3421 12.4211 17.3026 12.3606 17.2637 12.2997C17.2249 12.2388 17.18 12.1818 17.1291 12.1287C17.0782 12.0757 17.0289 12.0216 16.981 11.9665C16.9332 11.9115 16.8935 11.8511 16.8619 11.7854C16.8302 11.7197 16.7967 11.6556 16.7612 11.5929C16.7257 11.5303 16.6878 11.4696 16.6475 11.4108C16.6071 11.352 16.5827 11.288 16.5743 11.219C16.5659 11.15 16.5648 11.0786 16.5709 11.005C16.5771 10.9313 16.6136 10.8742 16.6805 10.8338C16.7474 10.7934 16.8045 10.7452 16.8517 10.6891C16.899 10.633 16.9569 10.5888 17.0255 10.5566C17.094 10.5244 17.1543 10.4822 17.2063 10.4301C17.2583 10.3779 17.316 10.3325 17.3793 10.294C17.4425 10.2554 17.5042 10.215 17.5643 10.1725C17.6243 10.1301 17.6814 10.084 17.7353 10.0341C17.7893 9.9843 17.8485 9.9408 17.9129 9.90363C17.9773 9.86647 18.0374 9.82412 18.0933 9.7766C18.1491 9.72908 18.1997 9.67516 18.2451 9.61485C18.2904 9.55453 18.3424 9.50234 18.4012 9.45827C18.4599 9.4142 18.5234 9.37594 18.5917 9.34349C18.6599 9.31104 18.7245 9.27412 18.7855 9.23273C18.8464 9.19134 18.9072 9.14979 18.9678 9.10807C19.0285 9.06635 19.0857 9.02054 19.1396 8.97063C19.1935 8.92072 19.252 8.8763 19.3149 8.83738C19.3779 8.79845 19.4399 8.75845 19.5011 8.71736C19.5623 8.67627 19.6175 8.62792 19.6667 8.57232C19.7159 8.51672 19.7708 8.46803 19.8314 8.42626C19.892 8.38449 19.9513 8.34107 20.0092 8.29601C20.0671 8.25095 20.1309 8.21308 20.2008 8.18241C20.2706 8.15174 20.3284 8.10646 20.374 8.04657C20.4196 7.98669 20.4732 7.93636 20.5347 7.8956C20.5963 7.85484 20.6553 7.81122 20.7119 7.76474C20.7685 7.71826 20.824 7.67064 20.8785 7.62186C20.9329 7.57309 20.987 7.52423 21.0407 7.47526C21.0944 7.4263 21.1545 7.3835 21.2209 7.34686C21.2872 7.31022 21.3365 7.25917 21.3686 7.19371C21.4007 7.12825 21.4365 7.06599 21.4758 7.00692C21.5152 6.94785 21.5294 6.88241 21.5184 6.81061C21.5074 6.7388 21.4748 6.67802 21.4205 6.62826C21.3662 6.57851 21.3146 6.52691 21.2658 6.47347C21.2169 6.42003 21.1548 6.38909 21.0794 6.38066C21.004 6.37222 20.9292 6.3746 20.855 6.38779C20.7807 6.40097 20.7065 6.41031 20.6321 6.41579C20.5578 6.42127 20.4837 6.42934 20.4099 6.43999C20.336 6.45064 20.2617 6.45872 20.1869 6.46422C20.1121 6.46973 20.0376 6.47752 19.9634 6.48759C19.8892 6.49765 19.8145 6.50459 19.7393 6.5084C19.6642 6.51221 19.5898 6.52063 19.5163 6.53366C19.4428 6.54669 19.3701 6.56422 19.2981 6.58624C19.2262 6.60826 19.1535 6.62631 19.0802 6.64041C19.0069 6.6545 18.9323 6.66199 18.8565 6.66287C18.7807 6.66375 18.7064 6.67265 18.6336 6.68955C18.5608 6.70646 18.4882 6.72407 18.4157 6.74239C18.3431 6.7607 18.2711 6.78142 18.1995 6.80453C18.1279 6.82765 18.0555 6.84655 17.9823 6.86123C17.9091 6.87592 17.835 6.886 17.76 6.89147C17.6851 6.89694 17.6106 6.90503 17.5367 6.91573C17.4627 6.92644 17.3892 6.93973 17.3163 6.95562C17.2433 6.9715 17.171 6.99105 17.0994 7.01428C17.0278 7.0375 16.9537 7.04713 16.8769 7.04316C16.8002 7.0392 16.726 7.04888 16.6545 7.0722C16.5829 7.09551 16.5107 7.11531 16.4378 7.1316C16.3649 7.14788 16.2905 7.15648 16.2147 7.15739C16.1389 7.15831 16.0653 7.17111 15.994 7.1958C15.9227 7.2205 15.8493 7.234 15.7737 7.23631C15.6982 7.23861 15.6222 7.23869 15.5458 7.23653C15.4694 7.23437 15.3959 7.24741 15.3252 7.27565C15.2546 7.30388 15.1816 7.31958 15.1062 7.32274C15.0308 7.3259 14.958 7.34286 14.8878 7.37364C14.8175 7.40442 14.7447 7.42132 14.6692 7.42433C14.5937 7.42734 14.5177 7.43359 14.4412 7.44308C14.3647 7.45257 14.2925 7.43945 14.2245 7.4037C14.1565 7.36795 14.0994 7.32313 14.053 7.26925C14.0066 7.21538 13.9616 7.15936 13.9182 7.10122C13.8747 7.04307 13.845 6.97893 13.8291 6.90878C13.8132 6.83863 13.8011 6.76939 13.7929 6.70107C13.7848 6.63274 13.7833 6.5982 13.7886 6.59745C13.7939 6.5967 13.7881 6.56156 13.7711 6.49201Z" fill="#1B1B1B" style="fill:#1B1B1B;fill:color(display-p3 0.1059 0.1059 0.1059);fill-opacity:1;"/>
<path d="M12.571 0.0191993C12.7476 0.0322537 12.9088 0.106745 13.0269 0.234822L13.1296 0.379195L13.2455 0.624818C13.2684 0.681105 13.2946 0.738862 13.3221 0.795441C13.3875 0.930457 13.4175 1.07686 13.4136 1.22669C13.4128 1.25988 13.4163 1.2903 13.4229 1.31856C13.4426 1.40262 13.458 1.4881 13.4696 1.57356C13.4807 1.6545 13.4906 1.73564 13.4958 1.8173L13.5537 1.93543C13.6008 2.05807 13.6176 2.19111 13.6004 2.3273C13.5989 2.33979 13.5988 2.34738 13.6004 2.35355C13.6299 2.46148 13.6412 2.57211 13.6397 2.68354C13.7234 2.84363 13.7504 3.02146 13.7163 3.20104C13.738 3.27699 13.7588 3.35301 13.776 3.42979C13.7916 3.49933 13.8071 3.57025 13.8228 3.63978C13.8496 3.75915 13.8579 3.88046 13.847 4.00166C13.8458 4.01503 13.846 4.02548 13.8489 4.0354C13.8801 4.14116 13.8997 4.24956 13.905 4.35978C13.9051 4.36047 13.906 4.36392 13.9087 4.36915C13.9832 4.51351 14.0158 4.67385 14.0021 4.83977C13.9984 4.88443 13.9999 4.92768 14.004 4.96914C14.0077 5.00724 14.0146 5.04538 14.0264 5.08352C14.0547 5.17514 14.0758 5.26831 14.0899 5.36289C14.104 5.45748 14.1126 5.55389 14.1123 5.64976C14.1123 5.68331 14.1159 5.71543 14.1235 5.74726C14.136 5.7989 14.1514 5.8512 14.1703 5.90288C14.2174 6.03239 14.2378 6.16817 14.23 6.306C14.2286 6.33144 14.2303 6.35485 14.2356 6.37725C14.2447 6.41448 14.254 6.45562 14.2599 6.49163C14.2623 6.50583 14.2687 6.54167 14.2693 6.5835C14.2694 6.58932 14.2663 6.60032 14.2655 6.61538C14.2662 6.62176 14.2659 6.63105 14.2674 6.6435H14.2618C14.2612 6.64948 14.2609 6.65569 14.2599 6.66225C14.2602 6.65991 14.2616 6.65805 14.2618 6.65663C14.2623 6.65199 14.2615 6.64753 14.2618 6.6435H14.2674C14.2735 6.69457 14.283 6.74822 14.2954 6.80287C14.2962 6.80615 14.2979 6.80801 14.301 6.81225C14.338 6.86164 14.376 6.90948 14.415 6.95475C14.4168 6.95682 14.4203 6.95894 14.4243 6.96225C14.4998 6.95387 14.5753 6.94837 14.6504 6.94537C14.6655 6.94475 14.6807 6.94133 14.6971 6.93412C14.8204 6.88017 14.9506 6.84797 15.0857 6.84225C15.1066 6.84137 15.1266 6.83735 15.1474 6.82912C15.2786 6.77666 15.4175 6.75214 15.5584 6.756C15.6253 6.75789 15.6925 6.75799 15.7583 6.756C15.7858 6.75516 15.813 6.75175 15.8386 6.74287C15.9583 6.70146 16.0821 6.67882 16.2086 6.67725C16.2519 6.67673 16.2936 6.67122 16.3337 6.66225C16.3917 6.64929 16.4502 6.63403 16.5075 6.61538C16.6356 6.57374 16.7681 6.55598 16.9017 6.56288C16.9215 6.56389 16.9372 6.56209 16.9521 6.55725C17.0386 6.52919 17.127 6.50527 17.2156 6.486C17.2991 6.46785 17.3832 6.45326 17.4678 6.441C17.5529 6.42868 17.6395 6.41917 17.7256 6.41288C17.7807 6.40885 17.8348 6.40107 17.8882 6.39038C17.9433 6.37932 17.9982 6.36478 18.0526 6.34725C18.1339 6.32099 18.2166 6.29686 18.2992 6.27601C18.3744 6.25702 18.4498 6.23916 18.5252 6.22163C18.6319 6.19686 18.7408 6.18357 18.8503 6.18226C18.8982 6.1817 18.9454 6.17779 18.9904 6.16913C19.0468 6.15829 19.1029 6.14491 19.1586 6.12788C19.2489 6.10025 19.3406 6.07681 19.4332 6.06038C19.5264 6.04388 19.6206 6.03331 19.7153 6.02851C19.7769 6.02539 19.8379 6.01983 19.8984 6.01163C19.9823 6.00026 20.068 5.99161 20.1525 5.98538C20.2159 5.9807 20.2788 5.97375 20.3412 5.96476C20.426 5.95253 20.5118 5.94293 20.5972 5.93663C20.6548 5.93238 20.7128 5.9263 20.7709 5.91601C20.8901 5.89483 21.0113 5.88953 21.1315 5.90288C21.2695 5.91832 21.4007 5.96862 21.5126 6.05288L21.6191 6.14851L21.7424 6.27413C21.8759 6.3964 21.963 6.55549 21.9909 6.73725C22.0195 6.9247 21.9806 7.11225 21.8732 7.27349C21.8458 7.3146 21.8216 7.35952 21.7985 7.40662C21.7211 7.56401 21.5993 7.68471 21.451 7.76661C21.4162 7.78579 21.3879 7.80793 21.3632 7.83036C21.3084 7.88025 21.2524 7.93069 21.1969 7.98036C21.1376 8.03346 21.0772 8.08539 21.0157 8.13598C20.9466 8.19271 20.8737 8.24581 20.799 8.29536C20.7829 8.30601 20.7679 8.32034 20.7541 8.33848C20.6585 8.46388 20.5345 8.55886 20.3917 8.6216C20.3567 8.63699 20.3273 8.65624 20.302 8.67598C20.2369 8.72659 20.1701 8.77535 20.1021 8.82223C20.0737 8.84178 20.0472 8.8649 20.0236 8.8916C19.9478 8.97719 19.8625 9.05284 19.7677 9.1166C19.7015 9.16104 19.6339 9.20391 19.5659 9.24597C19.5289 9.26882 19.4942 9.29406 19.4631 9.32285C19.3924 9.38836 19.3184 9.45005 19.2389 9.50472C19.1776 9.54691 19.1156 9.58848 19.054 9.63034C18.9723 9.6858 18.8858 9.73396 18.7961 9.77659C18.7559 9.79569 18.7201 9.81799 18.6878 9.84222C18.6661 9.85846 18.645 9.87892 18.6261 9.90409C18.5602 9.99173 18.4854 10.0713 18.4019 10.1422C18.3237 10.2087 18.2407 10.2689 18.1516 10.3203C18.1176 10.34 18.0875 10.3625 18.06 10.3878C17.9907 10.4518 17.9166 10.5115 17.8396 10.566C17.7707 10.6146 17.6989 10.6607 17.6266 10.7047C17.5961 10.7233 17.569 10.7457 17.5444 10.7703C17.4521 10.8628 17.3457 10.9366 17.2286 10.9916C17.2209 10.9952 17.2187 10.9976 17.2174 10.9991C17.1679 11.0579 17.1103 11.1078 17.0512 11.1547C17.0953 11.2199 17.1373 11.2865 17.1763 11.3553C17.2171 11.4273 17.256 11.5014 17.2922 11.5766C17.3052 11.6037 17.321 11.6287 17.3407 11.6516C17.3833 11.7006 17.428 11.7486 17.4734 11.7959C17.5456 11.8713 17.6097 11.9537 17.6658 12.0416C17.7028 12.0995 17.7416 12.1569 17.7798 12.2141C17.805 12.2518 17.8333 12.2883 17.8657 12.3228C17.9385 12.4003 18.0031 12.485 18.0582 12.5759C18.0874 12.6242 18.1195 12.6712 18.1535 12.7166C18.2145 12.7983 18.2673 12.8854 18.3123 12.9772C18.3301 13.0136 18.3514 13.0486 18.3758 13.0803C18.4045 13.1176 18.4384 13.1526 18.4748 13.1872C18.5602 13.2683 18.6335 13.3607 18.6934 13.4628C18.7232 13.5137 18.7547 13.5645 18.7887 13.6128C18.8367 13.6811 18.882 13.7512 18.9251 13.8228C18.965 13.8891 19.005 13.9557 19.0428 14.0234C19.0653 14.0639 19.0904 14.1032 19.1194 14.1397C19.165 14.1971 19.2105 14.2545 19.2557 14.3122C19.2867 14.3516 19.3225 14.39 19.3604 14.4265C19.4293 14.4932 19.4923 14.5651 19.5509 14.6403C19.6171 14.7252 19.6747 14.8167 19.7209 14.914C19.7355 14.9446 19.754 14.9726 19.7751 14.9984C19.8141 15.0459 19.8539 15.0936 19.8966 15.139C19.9864 15.2347 20.0531 15.3455 20.1002 15.4672C20.1981 15.5486 20.2827 15.6447 20.3468 15.7578C20.3622 15.7849 20.3812 15.8103 20.4047 15.8347C20.5017 15.935 20.5762 16.0528 20.6252 16.1834C20.6266 16.1871 20.6275 16.1895 20.6308 16.1928C20.6955 16.2567 20.757 16.3233 20.8139 16.3934C20.8843 16.4801 20.9439 16.5753 20.9914 16.6765C21.0191 16.7356 21.0474 16.7939 21.0773 16.8509C21.099 16.8923 21.1238 16.9328 21.1521 16.9709C21.1893 17.021 21.2292 17.0722 21.2716 17.1228C21.3582 17.2258 21.4181 17.3449 21.4454 17.4753L21.4622 17.6084L21.4585 17.779C21.4538 17.8349 21.446 17.8907 21.4342 17.9459C21.3939 18.1329 21.289 18.29 21.1408 18.4015C21.0723 18.4531 21.0024 18.5026 20.9316 18.5477C20.7896 18.638 20.6289 18.6805 20.4627 18.6752C20.3819 18.6727 20.2988 18.6673 20.2142 18.6602C20.0839 18.6493 19.9567 18.6179 19.8368 18.5627C19.7225 18.5102 19.6189 18.4395 19.5266 18.3546C19.5001 18.3302 19.4731 18.3125 19.4463 18.2984C19.4094 18.2791 19.3689 18.2627 19.3249 18.2496C19.2017 18.2132 19.0861 18.1568 18.9811 18.0809C18.9443 18.0542 18.9045 18.0312 18.8634 18.0115C18.7857 17.9742 18.7099 17.9327 18.6355 17.8896C18.5861 17.8611 18.5352 17.8345 18.4823 17.8109C18.3866 17.7681 18.2952 17.7174 18.2095 17.6571C18.1773 17.6345 18.1421 17.6147 18.1049 17.599C18.0475 17.5749 17.9878 17.5535 17.9274 17.5334C17.788 17.4868 17.6631 17.4105 17.5575 17.3084C17.551 17.3021 17.5457 17.2978 17.5388 17.2953C17.4713 17.2708 17.4033 17.2473 17.3351 17.224C17.1905 17.1746 17.0629 17.0918 16.9577 16.9821C16.9329 16.9562 16.907 16.9358 16.8811 16.9203C16.8583 16.9066 16.8311 16.895 16.7989 16.8865C16.6896 16.8575 16.5845 16.8169 16.4851 16.7628C16.389 16.7104 16.2985 16.6473 16.216 16.5753C16.2089 16.5691 16.2009 16.5638 16.1899 16.5603C16.085 16.5262 15.9838 16.4818 15.8891 16.4253C15.8577 16.4066 15.8229 16.3907 15.7845 16.3784C15.6824 16.3456 15.5843 16.3017 15.4911 16.249C15.4223 16.21 15.3531 16.1703 15.2856 16.129C15.2333 16.097 15.1797 16.0671 15.125 16.039C15.0561 16.0037 14.9872 15.967 14.9194 15.9303C14.8551 15.8954 14.7938 15.8534 14.7326 15.8122C14.7199 15.8145 14.7082 15.8162 14.699 15.8197C14.6645 15.8326 14.6312 15.849 14.5981 15.8665C14.5954 15.9951 14.5654 16.1205 14.5065 16.2378C14.508 16.2349 14.5123 16.2294 14.514 16.2209V16.3746C14.5097 16.433 14.5025 16.4913 14.4897 16.549C14.4811 16.5882 14.4758 16.6283 14.4748 16.669C14.4718 16.7922 14.4485 16.9133 14.4075 17.029C14.3857 17.0908 14.3649 17.1526 14.3459 17.2146C14.3375 17.2419 14.3335 17.2694 14.3328 17.2971C14.3299 17.4105 14.3123 17.5221 14.2805 17.6309C14.2635 17.6888 14.2483 17.7469 14.2356 17.8053C14.2338 17.8136 14.2329 17.8256 14.2356 17.8428C14.2576 17.9795 14.2526 18.1186 14.217 18.2552C14.1977 18.3291 14.1769 18.403 14.1553 18.4765C14.151 18.4912 14.1486 18.5077 14.1497 18.5252C14.1564 18.6352 14.1506 18.7448 14.131 18.8534C14.1147 18.9436 14.0932 19.0337 14.0656 19.1215C14.0435 19.1919 14.0214 19.263 13.9984 19.3334C14.017 19.4697 14.0086 19.6076 13.9703 19.7421C13.9532 19.8025 13.9373 19.8632 13.9236 19.924C13.9066 19.9995 13.8893 20.0758 13.8695 20.1509C13.8516 20.2184 13.8331 20.2858 13.8153 20.3534L13.8396 20.5446C13.8417 20.6086 13.838 20.6731 13.8284 20.7377C13.8138 20.8349 13.7897 20.9309 13.7592 21.0246C13.7392 21.086 13.7219 21.1485 13.7051 21.2102C13.6954 21.2458 13.6901 21.2822 13.6882 21.319C13.6842 21.3985 13.6776 21.4783 13.6696 21.5571C13.6591 21.6596 13.6382 21.7604 13.6079 21.859C13.5943 21.9032 13.5841 21.9477 13.578 21.9921C13.5636 22.0975 13.5371 22.2001 13.4995 22.2996C13.5167 22.4638 13.485 22.6232 13.4099 22.7683C13.4123 22.8883 13.3978 23.0073 13.3613 23.1227C13.3271 23.2306 13.2795 23.3327 13.2193 23.4283C13.1869 23.4797 13.1556 23.5315 13.1277 23.5839C13.0358 23.7569 12.8896 23.8773 12.7167 23.9421C12.5675 23.998 12.4096 24.0144 12.2515 23.9871C12.1801 23.9747 12.1063 23.9615 12.0311 23.9496C11.8259 23.9168 11.6446 23.8055 11.5266 23.6233C11.4714 23.5378 11.4239 23.4483 11.3846 23.3552C11.347 23.266 11.3164 23.1734 11.2931 23.0796C11.2819 23.0347 11.2666 22.9896 11.2482 22.9464C11.2075 22.8503 11.1771 22.7507 11.1567 22.6483C11.1394 22.5613 11.1318 22.4727 11.1287 22.384C11.0656 22.2867 11.0207 22.1795 11.0016 22.0633L10.9792 21.8046C10.9707 21.7592 10.9576 21.7141 10.9418 21.6696C10.9102 21.5802 10.8855 21.4887 10.8671 21.3958C10.8567 21.3433 10.8422 21.2916 10.826 21.2402C10.8034 21.1687 10.7817 21.0965 10.7606 21.0246C10.7407 20.9565 10.721 20.8883 10.7008 20.8202C10.6671 20.706 10.6501 20.5883 10.6504 20.4696C10.6505 20.4314 10.6467 20.3949 10.6392 20.3608C10.6317 20.3275 10.6199 20.2939 10.6037 20.2596C10.5635 20.1748 10.5293 20.0878 10.5009 19.999C10.477 19.9241 10.4542 19.8478 10.4337 19.7721C10.3994 19.6456 10.3903 19.5163 10.4019 19.3877C10.4044 19.3602 10.4023 19.3375 10.3982 19.3184C10.3865 19.265 10.3724 19.2114 10.3552 19.159C10.3384 19.1078 10.3185 19.056 10.2954 19.0052C10.2421 18.8878 10.2095 18.7633 10.2001 18.634C10.1961 18.5784 10.189 18.523 10.1796 18.469C10.1747 18.4411 10.1669 18.4119 10.1534 18.3827C10.0975 18.2618 10.0687 18.1328 10.0656 18.0003C10.0088 17.9052 9.96477 17.8027 9.93484 17.6946C9.9133 17.6168 9.89367 17.5377 9.87692 17.4584L9.87506 17.4546C9.85867 17.446 9.83977 17.4396 9.82088 17.4321C9.78475 17.4518 9.74995 17.4719 9.71625 17.4921C9.70482 17.499 9.69596 17.5065 9.68823 17.5165C9.60892 17.6208 9.51236 17.7088 9.40238 17.779C9.35243 17.8108 9.30395 17.8446 9.25852 17.8803C9.24181 17.8934 9.22816 17.9098 9.21555 17.929C9.12994 18.059 9.01566 18.1618 8.88113 18.2346C8.84749 18.2528 8.82014 18.2733 8.79705 18.2946C8.76516 18.3241 8.73583 18.3566 8.70924 18.3921C8.64166 18.4824 8.56323 18.563 8.47571 18.634C8.40692 18.6898 8.33358 18.7407 8.25898 18.7896C8.18764 18.9159 8.09296 19.0246 7.97314 19.1084C7.9116 19.1514 7.85001 19.1951 7.78818 19.2377C7.73505 19.2744 7.68315 19.3128 7.63311 19.3521C7.61513 19.3663 7.59998 19.3825 7.5864 19.4027C7.52728 19.4907 7.46004 19.5723 7.38463 19.6465C7.33246 19.6977 7.27993 19.7491 7.22769 19.8002C7.17199 19.8548 7.11511 19.9086 7.05767 19.9615C6.98261 20.0305 6.90117 20.0921 6.8148 20.1471C6.78262 20.1676 6.75583 20.1904 6.73259 20.2146C6.67504 20.2745 6.61462 20.3327 6.55324 20.389C6.50441 20.4337 6.45624 20.4792 6.40938 20.5258C6.34487 20.5901 6.27723 20.651 6.20573 20.7077C6.1495 20.7523 6.09329 20.7977 6.03759 20.8427C5.98901 20.882 5.94109 20.9225 5.8956 20.9646C5.82981 21.0254 5.76021 21.0833 5.68822 21.1371C5.62967 21.1808 5.57082 21.2248 5.5126 21.2683C5.48154 21.2916 5.4521 21.3196 5.42479 21.3508C5.33489 21.4538 5.2268 21.5369 5.10531 21.5983C4.97242 21.6654 4.82679 21.7011 4.6756 21.6996C4.53909 21.6981 4.40439 21.6693 4.27766 21.6115C4.20099 21.5764 4.12463 21.5376 4.04973 21.4952C3.90509 21.4132 3.79157 21.2935 3.7153 21.1465C3.63684 20.9952 3.60557 20.8277 3.62749 20.6571L3.67981 20.3871C3.71415 20.25 3.77604 20.1255 3.86103 20.0159C3.88353 19.9868 3.89974 19.9583 3.91147 19.9315C3.94854 19.8461 3.99224 19.762 4.04039 19.6821C4.07225 19.6292 4.10179 19.5752 4.13006 19.5209C4.13402 19.5132 4.13922 19.5022 4.14127 19.4834L4.16369 19.3577C4.19561 19.235 4.25435 19.1208 4.33931 19.0221C4.37903 18.8654 4.45788 18.7285 4.56911 18.6171L4.59527 18.5815C4.63154 18.5002 4.67186 18.4205 4.71671 18.3434C4.73499 18.3119 4.75048 18.2792 4.76155 18.244C4.80331 18.111 4.86997 17.9903 4.95958 17.8859C4.98916 17.8514 5.01386 17.8164 5.03432 17.7809C5.03559 17.7787 5.0384 17.7736 5.03992 17.7603L5.06047 17.644C5.08849 17.5294 5.13869 17.4208 5.2118 17.3234C5.23704 17.2897 5.25841 17.2557 5.27533 17.2203C5.30635 17.1553 5.33753 17.0902 5.36874 17.0253C5.41947 16.9197 5.48658 16.8248 5.56491 16.7403C5.59009 16.6288 5.62918 16.5215 5.68635 16.4215C5.7298 16.3455 5.77898 16.2726 5.83208 16.2021C5.84108 16.1336 5.85574 16.0666 5.87691 16.0015C5.87265 15.9949 5.87002 15.9873 5.86571 15.9809C5.84086 15.9715 5.81483 15.9631 5.78724 15.9565C5.70724 15.9848 5.62675 16.0125 5.54436 16.0315C5.47686 16.0471 5.40966 16.0644 5.34258 16.0821C5.27353 16.1005 5.20371 16.1187 5.1352 16.1384C5.1014 16.1482 5.0692 16.1617 5.03805 16.1796C4.95911 16.2252 4.87796 16.2681 4.79517 16.3053C4.68942 16.3527 4.57857 16.3855 4.46449 16.4046C4.42787 16.4108 4.39417 16.4211 4.3636 16.4346C4.30094 16.4624 4.23858 16.4909 4.17677 16.5209C4.11247 16.5521 4.04815 16.5842 3.98434 16.6165C3.88694 16.6659 3.78365 16.7036 3.67794 16.7309C3.62719 16.744 3.57811 16.7617 3.53034 16.7815C3.46299 16.8095 3.3954 16.8374 3.32857 16.8659C3.23149 16.9073 3.13118 16.9396 3.02777 16.9615C2.9624 16.9754 2.89696 16.9912 2.83347 17.0084C2.76225 17.0276 2.68998 17.047 2.61862 17.0665C2.58333 17.0763 2.55004 17.09 2.51773 17.1078C2.40333 17.1709 2.28004 17.2128 2.15154 17.2334C2.11027 17.24 2.07177 17.2511 2.03571 17.2653C1.9391 17.3034 1.83884 17.3318 1.73678 17.3515C1.69053 17.3604 1.6453 17.3725 1.60227 17.389C1.49339 17.4307 1.38002 17.4579 1.26411 17.4696C1.18921 17.4772 1.11568 17.4853 1.04365 17.4921C0.912532 17.5045 0.781987 17.4906 0.655043 17.4528C0.506588 17.4084 0.377584 17.3289 0.272044 17.2221C0.167495 17.1163 0.0900692 16.9894 0.0441121 16.8471C-0.00362675 16.6989 -0.0120501 16.5446 0.0160878 16.3934L0.0459804 16.2734C0.0855889 16.1557 0.150854 16.0484 0.238414 15.9565C0.298138 15.8939 0.359649 15.8337 0.423375 15.7765C0.466697 15.7377 0.509068 15.6956 0.548551 15.6528C0.60935 15.5869 0.673654 15.5245 0.740984 15.4653C0.845322 15.3736 0.964798 15.306 1.09222 15.2609C1.11641 15.2524 1.13048 15.2436 1.13893 15.2365C1.18335 15.1991 1.22678 15.1583 1.26784 15.1165C1.33453 15.0487 1.40559 14.9852 1.48083 14.9272C1.52114 14.896 1.5604 14.8629 1.59666 14.8259C1.67778 14.7431 1.76789 14.671 1.86756 14.6122C1.9395 14.5697 2.01297 14.5288 2.08802 14.4903C2.0927 14.4879 2.09443 14.4866 2.09736 14.4828C2.16774 14.3919 2.24915 14.3112 2.34024 14.2409C2.43881 14.165 2.548 14.1055 2.66346 14.0628C2.7044 14.0476 2.73958 14.0301 2.76995 14.0103C2.81852 13.9787 2.86529 13.9449 2.91007 13.909C2.94435 13.8816 2.97726 13.8499 3.00722 13.8153C3.10556 13.7018 3.2261 13.6156 3.3622 13.5584C3.43522 13.4712 3.51758 13.3934 3.61068 13.3278C3.66541 13.2893 3.72029 13.2503 3.77322 13.2097C3.85503 13.1468 3.94264 13.0917 4.03478 13.0447C4.08876 13.0171 4.13993 12.9862 4.18985 12.9547C4.22553 12.9322 4.2589 12.9065 4.28887 12.8778C4.35094 12.8185 4.41488 12.7613 4.4813 12.7072C4.54362 12.6564 4.60727 12.607 4.67187 12.5591C4.72101 12.5226 4.76953 12.4847 4.81573 12.4447C4.89876 12.3727 4.98969 12.3107 5.08663 12.2591C5.11422 12.2444 5.13713 12.2263 5.15762 12.2066C5.24587 12.1216 5.34586 12.0514 5.45468 11.9966C5.49755 11.975 5.53636 11.9503 5.57238 11.9234C5.61013 11.8953 5.64575 11.8641 5.67888 11.8297C5.73338 11.773 5.78905 11.7176 5.84515 11.6628C5.91679 11.5929 5.99466 11.5287 6.07682 11.4716C6.12725 11.4365 6.17704 11.3995 6.22442 11.3609C6.31016 11.2912 6.40356 11.2314 6.50279 11.1828C6.51479 11.1769 6.52206 11.17 6.52895 11.1622C6.61013 11.0705 6.70442 10.993 6.80919 10.9297C6.86107 10.8984 6.91212 10.8653 6.96052 10.8303C7.03146 10.779 7.10547 10.7292 7.18098 10.6841C7.21765 10.6621 7.25177 10.6383 7.28187 10.611C7.31131 10.5842 7.33421 10.5551 7.35473 10.5266C7.33763 10.48 7.32132 10.4318 7.30429 10.3841C7.28701 10.3357 7.26648 10.2876 7.24264 10.2397C7.21672 10.1877 7.18882 10.1369 7.15856 10.0878C7.15576 10.0833 7.14855 10.0753 7.13241 10.0635C7.03431 9.99193 6.94672 9.90671 6.87271 9.80847C6.802 9.71459 6.75066 9.61084 6.71391 9.50097C6.60535 9.411 6.51562 9.3001 6.45795 9.16535C6.44884 9.14401 6.43755 9.12466 6.42246 9.10722C6.34867 9.02219 6.28621 8.9286 6.23563 8.82785C6.21957 8.79583 6.1991 8.76585 6.17584 8.73785C6.11044 8.6591 6.05352 8.57427 6.00396 8.48473C5.97797 8.43774 5.94929 8.39152 5.91802 8.34786C5.86693 8.27652 5.81811 8.20252 5.77416 8.12661C5.7708 8.12102 5.76406 8.11324 5.74987 8.10223C5.61442 7.99711 5.51472 7.85549 5.46215 7.68786C5.45668 7.67058 5.44951 7.65857 5.4416 7.64849C5.39703 7.59165 5.35177 7.53464 5.30709 7.47787C5.27042 7.4313 5.23224 7.38534 5.19125 7.34099C5.13182 7.27672 5.07437 7.20927 5.02124 7.14037C4.96583 7.06847 4.91474 6.99308 4.86804 6.91537C4.82607 6.84553 4.78641 6.77403 4.74847 6.70163C4.72247 6.65203 4.69325 6.60352 4.66253 6.55725C4.64901 6.53706 4.63109 6.51613 4.60648 6.49538C4.4985 6.40429 4.41046 6.29212 4.34865 6.16163C4.32639 6.11471 4.30151 6.06955 4.27392 6.02663C4.22138 5.9449 4.17502 5.85885 4.13567 5.76976C4.1304 5.75802 4.12337 5.74629 4.11138 5.73414C4.02992 5.65163 3.95904 5.56015 3.90213 5.45851C3.85795 5.37959 3.81904 5.29813 3.78443 5.21477C3.77048 5.18113 3.75104 5.1456 3.72651 5.10977C3.59217 4.91393 3.56443 4.67283 3.66112 4.44978C3.68751 4.38888 3.71198 4.32849 3.73399 4.26978C3.79691 4.10227 3.91024 3.96916 4.05533 3.87603L4.21414 3.78978C4.26919 3.76494 4.32584 3.74284 4.38415 3.72603L4.51119 3.69978C4.63827 3.68351 4.76671 3.69764 4.89046 3.74103C4.95723 3.76453 5.02511 3.78713 5.09223 3.80853C5.23671 3.85457 5.36602 3.93296 5.47336 4.03915C5.49615 4.06172 5.51941 4.07925 5.54249 4.09165C5.61297 4.12954 5.68298 4.16915 5.75174 4.20978C5.79847 4.23737 5.84788 4.26205 5.89933 4.28478C5.96428 4.31346 6.02959 4.34177 6.0955 4.36915C6.18561 4.40658 6.27365 4.45075 6.35707 4.5004C6.45935 4.56135 6.54608 4.64011 6.62236 4.72915C6.74673 4.76585 6.86438 4.82227 6.968 4.90727C7.01218 4.94355 7.05879 4.97728 7.10625 5.00852C7.16213 5.04529 7.21887 5.08078 7.27626 5.11539C7.34638 5.15766 7.41587 5.20276 7.48364 5.24852C7.51698 5.27102 7.55383 5.29007 7.59387 5.30664C7.71616 5.35702 7.82747 5.42959 7.92456 5.52039C7.95536 5.54918 7.98871 5.57411 8.02358 5.59539C8.08341 5.63189 8.14415 5.66695 8.2048 5.70226C8.27557 5.74345 8.34557 5.787 8.41405 5.83163C8.48445 5.87752 8.55414 5.92562 8.62143 5.97601C8.65462 6.00081 8.6909 6.02313 8.72979 6.04163C8.78104 6.06599 8.83465 6.0876 8.89047 6.10726C9.00596 6.14786 9.11465 6.20627 9.21368 6.27975C9.26546 6.31817 9.31862 6.35501 9.37249 6.39038C9.42096 6.4222 9.47204 6.45131 9.52382 6.4785C9.59851 6.51774 9.67105 6.5602 9.74241 6.60413C9.78823 6.63234 9.83636 6.65713 9.8844 6.67913C9.90268 6.68745 9.92072 6.6921 9.94045 6.69413C9.94852 6.69495 9.9572 6.69261 9.9666 6.69225C9.97684 6.64728 9.98856 6.60317 9.99836 6.55913C10.0222 6.45203 10.0589 6.34827 10.1067 6.24976C10.1251 6.21193 10.1384 6.17415 10.1478 6.13726C10.1646 6.07197 10.1813 6.00594 10.1964 5.94038C10.2095 5.88367 10.2197 5.82551 10.2282 5.76789C10.2384 5.69821 10.2481 5.62762 10.2581 5.55789C10.2703 5.47264 10.2883 5.38847 10.3085 5.30477C10.3259 5.23263 10.344 5.15914 10.3627 5.08727C10.3805 5.01877 10.3973 4.94955 10.415 4.88102C10.4272 4.83371 10.4375 4.78535 10.443 4.73665C10.4528 4.65055 10.4661 4.56442 10.4841 4.47977C10.497 4.41886 10.5081 4.3576 10.5177 4.29603C10.5361 4.1787 10.572 4.06527 10.6224 3.95853C10.6273 3.94806 10.6295 3.93972 10.6298 3.93228C10.6355 3.81861 10.6547 3.70686 10.6896 3.59853C10.6932 3.58747 10.6961 3.57527 10.6952 3.55916C10.6886 3.43355 10.7011 3.3078 10.7363 3.18604C10.7549 3.12173 10.7736 3.05754 10.7905 2.99292C10.8091 2.92184 10.8289 2.85021 10.8484 2.77917C10.8646 2.72018 10.8774 2.66036 10.8895 2.60105C10.9005 2.54762 10.9102 2.493 10.9157 2.43792C10.9297 2.29961 10.9714 2.1693 11.0371 2.0498C11.0528 2.02132 11.0633 1.995 11.0689 1.97105C11.0734 1.95143 11.0746 1.92863 11.0726 1.90168C11.0639 1.78787 11.0687 1.67311 11.0894 1.56043C11.1113 1.44172 11.1575 1.33225 11.2165 1.23044C11.2121 1.06689 11.2529 0.908708 11.3435 0.769191L11.4014 0.660442C11.4328 0.581805 11.4678 0.503138 11.5061 0.42607L11.5883 0.296696C11.6817 0.178084 11.8068 0.0937661 11.9507 0.049199L12.145 0.00794944C12.2102 0.000175811 12.2764 -0.00229786 12.3431 0.0023245C12.4163 0.00742365 12.4925 0.0133978 12.571 0.0191993ZM12.2889 1.01669C12.2563 1.0984 12.2152 1.17587 12.1693 1.25106C12.1725 1.41287 12.1322 1.56921 12.0441 1.70668C12.035 1.72093 12.0321 1.72933 12.0311 1.73481C12.026 1.76251 12.0229 1.79273 12.0255 1.82668C12.0348 1.94722 12.0267 2.06783 11.9993 2.18668C11.9728 2.30136 11.9304 2.4106 11.8741 2.51292C11.868 2.5241 11.8671 2.53142 11.8667 2.53542C11.8579 2.62279 11.845 2.71032 11.8274 2.79604C11.811 2.8759 11.7912 2.95523 11.7695 3.03417C11.7511 3.10108 11.7328 3.16789 11.7153 3.23479C11.6962 3.30786 11.6765 3.38149 11.6555 3.45416C11.651 3.46982 11.6488 3.48742 11.6499 3.50854C11.6569 3.6392 11.64 3.76923 11.5995 3.89478C11.5905 3.92264 11.586 3.95132 11.5845 3.98103C11.5778 4.11728 11.5451 4.24886 11.4874 4.37103C11.4751 4.39702 11.4668 4.42071 11.4631 4.44415C11.4507 4.52314 11.4367 4.60223 11.4201 4.6804C11.4086 4.73482 11.3984 4.78982 11.3921 4.8454C11.3815 4.93868 11.3651 5.03204 11.3417 5.12289C11.3238 5.19224 11.3055 5.2617 11.2875 5.33102C11.2702 5.39719 11.2531 5.46336 11.237 5.52976C11.2239 5.58411 11.2132 5.63939 11.2053 5.69476C11.1951 5.76573 11.1858 5.83759 11.1754 5.90851C11.1631 5.99184 11.1476 6.07583 11.1287 6.15788C11.1118 6.23114 11.0932 6.30433 11.0745 6.37725C11.0485 6.47859 11.0119 6.57738 10.9661 6.67163C10.9501 6.70484 10.9394 6.73656 10.9325 6.76725C10.9169 6.83729 10.9005 6.90895 10.8839 6.981C10.8444 7.15245 10.754 7.30025 10.628 7.41412C10.51 7.52068 10.37 7.59362 10.2151 7.62787C10.0938 7.65464 9.96834 7.66309 9.84329 7.65036C9.71948 7.63769 9.59964 7.6047 9.48645 7.55287C9.40279 7.51455 9.3222 7.47002 9.24357 7.42162C9.19067 7.38904 9.13516 7.35915 9.07916 7.32974C9.00007 7.28821 8.92389 7.2418 8.84936 7.19287C8.78016 7.14743 8.71223 7.09972 8.64572 7.05037C8.62643 7.03606 8.60307 7.02473 8.57473 7.01475C8.48725 6.98399 8.40166 6.94919 8.31877 6.90975C8.22321 6.86427 8.13253 6.80815 8.04787 6.74475C7.99742 6.707 7.94554 6.67038 7.8928 6.636C7.83801 6.6003 7.78137 6.56589 7.72465 6.53288C7.6582 6.49419 7.59218 6.45475 7.52662 6.41475C7.43562 6.35923 7.3505 6.29455 7.27253 6.22163C7.26094 6.21088 7.24817 6.20228 7.23143 6.19538C7.13259 6.15466 7.03779 6.10512 6.94931 6.04538C6.89519 6.00885 6.84096 5.9723 6.7849 5.93851C6.71633 5.89717 6.64807 5.85498 6.58126 5.81101C6.50572 5.76128 6.4327 5.70725 6.36267 5.64976C6.36136 5.64913 6.35612 5.64765 6.34959 5.64601C6.17354 5.60193 6.01974 5.50431 5.90494 5.35914C5.89204 5.34279 5.88034 5.33193 5.86944 5.32539C5.82612 5.2996 5.7798 5.27623 5.73119 5.25602C5.65874 5.22592 5.58594 5.1957 5.51447 5.16414C5.42916 5.12646 5.34573 5.08376 5.26598 5.03664C5.20827 5.00254 5.14961 4.96911 5.09036 4.93727C4.9837 4.87991 4.88646 4.8084 4.80078 4.72352C4.74022 4.7042 4.67979 4.68245 4.61956 4.66165C4.61424 4.66376 4.60962 4.66682 4.60461 4.66915C4.60115 4.678 4.59692 4.68654 4.5934 4.6954C4.62027 4.74407 4.64491 4.7939 4.66626 4.8454C4.68639 4.89394 4.70942 4.94146 4.73539 4.98789C4.74889 5.012 4.76676 5.03599 4.78957 5.05914C4.88174 5.1525 4.95655 5.26055 5.01003 5.38164C5.02943 5.42557 5.05188 5.46775 5.07729 5.50726C5.12743 5.5853 5.17197 5.66693 5.2118 5.75101C5.21231 5.75211 5.21448 5.75468 5.22114 5.76039C5.31182 5.83684 5.39217 5.92518 5.45842 6.02476C5.5076 6.09882 5.55345 6.17647 5.5948 6.25538C5.62414 6.31135 5.65589 6.36658 5.68822 6.42038C5.71573 6.4661 5.74503 6.51088 5.7779 6.5535C5.81322 6.59931 5.85174 6.64322 5.89186 6.68663C5.95025 6.74976 6.00529 6.81634 6.05814 6.8835C6.10316 6.94071 6.1496 6.99685 6.19452 7.05412C6.26833 7.14824 6.32169 7.25377 6.3608 7.36537C6.45561 7.44369 6.53851 7.53549 6.60181 7.64474C6.63024 7.69384 6.66214 7.74104 6.69523 7.78724C6.74803 7.86095 6.79516 7.93851 6.83908 8.01786C6.85941 8.05462 6.88451 8.08984 6.91195 8.12286C6.98165 8.2068 7.04047 8.299 7.08944 8.39661C7.10385 8.42524 7.1219 8.4522 7.14362 8.47723C7.21995 8.56527 7.28117 8.66338 7.32858 8.76973L7.42012 8.85035C7.51095 8.94454 7.57832 9.05901 7.61629 9.18972C7.62146 9.20753 7.62794 9.21961 7.63498 9.2291C7.64815 9.24659 7.66738 9.26725 7.69476 9.28722C7.80363 9.36671 7.89837 9.46526 7.97127 9.58347C8.0167 9.65716 8.05961 9.73268 8.09831 9.81034C8.13903 9.89206 8.17434 9.97617 8.2048 10.0616C8.22799 10.1266 8.25074 10.1905 8.27393 10.2528C8.33359 10.4133 8.34069 10.5831 8.29635 10.746C8.26286 10.8687 8.20741 10.9823 8.13381 11.0853C8.07226 11.1714 8.00101 11.2504 7.92269 11.3216C7.84484 11.3923 7.76083 11.455 7.67047 11.5091C7.61876 11.54 7.56905 11.5737 7.52101 11.6084C7.45058 11.6594 7.37718 11.7077 7.30242 11.7528C7.28081 11.7659 7.26141 11.7806 7.2445 11.7997C7.15308 11.903 7.0443 11.987 6.92129 12.0472C6.88556 12.0647 6.85372 12.0846 6.82601 12.1072C6.75983 12.1611 6.69068 12.2121 6.62049 12.2609C6.58203 12.2877 6.54569 12.3182 6.51213 12.3509C6.4633 12.3986 6.41577 12.4478 6.36828 12.4972C6.29913 12.5691 6.22389 12.6345 6.14408 12.6941C6.06247 12.7549 5.97564 12.8093 5.88439 12.8553C5.85905 12.8681 5.83859 12.8832 5.82087 12.9003C5.73544 12.9825 5.63933 13.051 5.53502 13.1066C5.50016 13.1251 5.46928 13.1464 5.4416 13.1703C5.37706 13.2263 5.31029 13.2806 5.2417 13.3316C5.18858 13.371 5.13596 13.4117 5.08476 13.4534C5.03789 13.4916 4.99229 13.5315 4.94837 13.5734C4.87202 13.6464 4.7892 13.7121 4.69989 13.7684C4.62509 13.8156 4.5476 13.8591 4.46822 13.8997C4.42686 13.9208 4.38869 13.9445 4.35426 13.9709C4.2908 14.0197 4.22548 14.0673 4.15996 14.1134C4.13534 14.1308 4.11345 14.1521 4.0927 14.1772C3.99469 14.2957 3.87166 14.3846 3.73212 14.4434L3.72838 14.4453C3.66102 14.523 3.58798 14.5949 3.50792 14.659C3.4386 14.7145 3.36579 14.766 3.2912 14.8147C3.19805 14.8753 3.09853 14.926 2.99414 14.9647C2.96404 14.9758 2.9411 14.9883 2.92315 15.0022C2.89818 15.0214 2.8753 15.0442 2.85402 15.0715C2.76499 15.1865 2.65236 15.279 2.52333 15.3453C2.46485 15.3753 2.40873 15.4082 2.35332 15.4409C2.32552 15.4573 2.3009 15.4763 2.27859 15.499C2.21156 15.5674 2.13935 15.6301 2.06373 15.6884C2.02301 15.7198 1.98408 15.7547 1.9479 15.7915C1.88606 15.8544 1.82087 15.9148 1.7536 15.9715C1.65035 16.0584 1.53386 16.1227 1.40983 16.1665C1.38882 16.174 1.37846 16.1819 1.37247 16.1871C1.33 16.2245 1.2893 16.2638 1.25103 16.3053C1.19128 16.37 1.12788 16.4321 1.06233 16.4909C1.04889 16.5029 1.0345 16.5159 1.02123 16.5284C1.06967 16.5237 1.11896 16.5203 1.16882 16.5153C1.20105 16.512 1.23245 16.5042 1.26224 16.4928C1.35751 16.4563 1.45528 16.4277 1.55556 16.4084C1.60025 16.3998 1.6431 16.3872 1.68447 16.3709C1.78636 16.3307 1.89198 16.302 2.00021 16.2846C2.02132 16.2813 2.03943 16.2752 2.05626 16.2659C2.15487 16.2115 2.25971 16.17 2.36827 16.1403C2.44066 16.1204 2.51272 16.0998 2.58499 16.0803C2.66551 16.0585 2.7475 16.0396 2.82973 16.0221C2.87382 16.0128 2.91559 15.9995 2.95491 15.9828C3.02439 15.9531 3.09417 15.9237 3.16416 15.8946C3.25377 15.8574 3.34657 15.8252 3.44066 15.8009C3.4798 15.7907 3.51736 15.7776 3.55276 15.7597C3.62166 15.7247 3.69071 15.6902 3.76014 15.6565C3.83188 15.6218 3.90407 15.5875 3.97686 15.5553C4.08196 15.5087 4.19253 15.4768 4.30568 15.4578C4.34153 15.4518 4.37484 15.4412 4.4047 15.4278C4.45721 15.4042 4.50905 15.3783 4.55977 15.349C4.65805 15.2923 4.76279 15.2473 4.87177 15.2159C4.94663 15.1944 5.02242 15.174 5.09784 15.154C5.1752 15.1335 5.25349 15.1138 5.33137 15.0959C5.384 15.0838 5.43633 15.0682 5.48831 15.049L5.60601 15.0134C5.68582 14.996 5.7673 14.9907 5.84889 14.9965L5.97033 15.0134L6.12353 15.0547C6.17341 15.0706 6.22297 15.0882 6.27112 15.109C6.38089 15.1566 6.47769 15.226 6.55884 15.3134L6.63544 15.4072L6.77743 15.6378C6.88745 15.8394 6.89353 16.0699 6.79425 16.2771C6.78512 16.2963 6.78119 16.3138 6.7793 16.3315C6.76202 16.4938 6.70059 16.6437 6.60181 16.7721C6.56961 16.814 6.54223 16.8569 6.51774 16.8996C6.5084 16.916 6.49998 16.9346 6.49532 16.9578C6.46219 17.1233 6.38428 17.2702 6.26926 17.389C6.25024 17.4086 6.23753 17.4259 6.23002 17.4415C6.19915 17.5057 6.16916 17.5703 6.13848 17.6346C6.09648 17.7226 6.04469 17.8053 5.98714 17.884C5.9703 18.0155 5.93147 18.1432 5.86384 18.2609C5.81249 18.3502 5.7518 18.4337 5.68448 18.5121C5.67716 18.5206 5.67496 18.5274 5.67327 18.5327C5.64091 18.6357 5.59667 18.7339 5.54249 18.8271C5.51476 18.8748 5.48995 18.9236 5.46776 18.9734C5.41566 19.0901 5.34163 19.1911 5.25477 19.2809C5.22144 19.4046 5.16326 19.5151 5.08476 19.6146C5.06854 19.7359 5.03584 19.8545 4.97827 19.9652C4.94065 20.0376 4.9009 20.1089 4.8587 20.179C4.83236 20.2227 4.80767 20.268 4.7877 20.314C4.74248 20.4181 4.68509 20.5152 4.61582 20.6046C4.60904 20.6133 4.60723 20.6185 4.60648 20.6215C4.60047 20.6456 4.59625 20.6701 4.59153 20.6946C4.61955 20.7091 4.64611 20.7251 4.67374 20.7377C4.67396 20.7378 4.67534 20.7373 4.67747 20.7377C4.68854 20.7318 4.69789 20.7258 4.7055 20.7171C4.77614 20.6363 4.8551 20.5638 4.9409 20.4996C4.99927 20.4559 5.05782 20.4122 5.11652 20.3683C5.16213 20.3343 5.20612 20.2977 5.2473 20.2596C5.30857 20.2029 5.37088 20.1472 5.436 20.0946C5.49417 20.0476 5.5529 20.0005 5.61162 19.954C5.65489 19.9197 5.69626 19.8837 5.73492 19.8452C5.79129 19.7891 5.84997 19.734 5.90868 19.6802C5.95491 19.6379 5.99999 19.594 6.04319 19.549C6.12086 19.4681 6.20846 19.3973 6.30289 19.3371C6.34298 19.3115 6.37888 19.2825 6.41125 19.2527C6.46115 19.2068 6.51046 19.1595 6.55884 19.1121C6.61053 19.0615 6.66231 19.011 6.71391 18.9602C6.7425 18.9321 6.76873 18.8998 6.79238 18.8646C6.86148 18.7619 6.94531 18.6712 7.04273 18.5946C7.10838 18.543 7.17723 18.4942 7.24637 18.4465C7.30647 18.405 7.36593 18.3626 7.42573 18.3209C7.42591 18.3207 7.42829 18.3192 7.42946 18.3171L7.56211 18.1352C7.61311 18.0804 7.67004 18.0308 7.734 17.989C7.78305 17.9569 7.83001 17.9235 7.87412 17.8878C7.90037 17.8665 7.9228 17.842 7.94324 17.8146C8.00461 17.7326 8.0736 17.6571 8.14876 17.5878C8.23296 17.5101 8.32669 17.4434 8.42713 17.389C8.42809 17.3885 8.42639 17.39 8.42339 17.3928C8.42053 17.3954 8.41892 17.3985 8.41779 17.4003C8.48686 17.2952 8.57101 17.2024 8.67001 17.1246C8.74021 17.0695 8.81287 17.0173 8.8886 16.969C8.90427 16.959 8.91757 16.9487 8.92783 16.9353C9.00966 16.8277 9.10929 16.7365 9.22489 16.6671C9.29767 16.6235 9.37306 16.5816 9.45095 16.5415C9.62691 16.451 9.82294 16.4309 10.0133 16.4834C10.1198 16.5128 10.2223 16.5538 10.3197 16.6053C10.4464 16.6723 10.5563 16.7654 10.6429 16.8828C10.7258 16.9953 10.7839 17.1223 10.8129 17.2596C10.8256 17.3196 10.8397 17.3793 10.8559 17.4378C10.8618 17.459 10.8725 17.4832 10.8895 17.5109C10.9542 17.6151 10.9966 17.7306 11.0128 17.8521L11.0203 17.9778C11.0681 18.081 11.1034 18.1897 11.1231 18.3021C11.1381 18.3885 11.1485 18.4768 11.1548 18.5646C11.1559 18.5787 11.1592 18.5926 11.166 18.6077C11.2031 18.6894 11.2354 18.7726 11.2632 18.8571C11.2906 18.9407 11.3136 19.0264 11.3323 19.1121C11.3585 19.2319 11.3657 19.3532 11.3547 19.474C11.353 19.4934 11.3538 19.508 11.3566 19.519C11.3734 19.5809 11.3931 19.6432 11.4127 19.7046C11.4278 19.752 11.4463 19.7999 11.4687 19.8471C11.515 19.9448 11.5499 20.0471 11.5733 20.1527C11.5966 20.2578 11.6072 20.3657 11.607 20.4733C11.607 20.5001 11.6116 20.5239 11.6182 20.5465C11.6386 20.6155 11.6596 20.6855 11.6798 20.7546C11.6988 20.8196 11.7173 20.8849 11.7377 20.9496C11.7646 21.0346 11.7877 21.121 11.805 21.2083C11.8143 21.2554 11.826 21.3028 11.8424 21.349C11.8746 21.44 11.9012 21.5336 11.919 21.6283C11.9347 21.7125 11.9386 21.7977 11.9414 21.8833C12.0052 21.981 12.0509 22.089 12.0703 22.2058L12.0815 22.3333L12.0946 22.4608C12.1021 22.4981 12.1129 22.5354 12.1282 22.5715C12.1662 22.6609 12.1982 22.7528 12.2216 22.8471C12.2328 22.8921 12.2463 22.9366 12.2646 22.9802C12.2702 22.9934 12.2785 23.0062 12.2852 23.0196C12.3045 23.0228 12.3239 23.0257 12.3431 23.0289C12.3651 22.9908 12.3867 22.952 12.4103 22.9146C12.4272 22.8878 12.4405 22.8609 12.4496 22.8321C12.4539 22.8183 12.4559 22.8035 12.4552 22.7852C12.4489 22.6335 12.4818 22.487 12.5486 22.354C12.5401 22.2208 12.5561 22.0887 12.6046 21.9621L12.6308 21.8608C12.644 21.7642 12.6656 21.6692 12.6943 21.5758C12.7062 21.5371 12.7127 21.4983 12.7167 21.4596C12.7231 21.3971 12.7284 21.3335 12.7317 21.2702C12.7371 21.1639 12.7541 21.0579 12.7821 20.9552C12.803 20.8787 12.8266 20.8023 12.8512 20.7265C12.8654 20.6829 12.8746 20.6388 12.8811 20.5952C12.8827 20.5846 12.8837 20.5699 12.8793 20.5483C12.8497 20.4055 12.8521 20.257 12.8905 20.1115L12.9447 19.9034C12.9615 19.8399 12.977 19.7759 12.9914 19.7121C13.009 19.6338 13.0291 19.5553 13.0511 19.4777C13.0518 19.4755 13.0524 19.4713 13.0511 19.4627C13.0309 19.3187 13.0427 19.1736 13.0885 19.0334L13.1539 18.8327C13.1695 18.783 13.1804 18.7327 13.1894 18.6827C13.1951 18.6513 13.1972 18.6184 13.195 18.5834C13.1872 18.4556 13.2017 18.3279 13.238 18.2046C13.2568 18.1405 13.2753 18.0758 13.2922 18.0115C13.2927 18.0094 13.2937 18.0043 13.2922 17.9946C13.2714 17.8646 13.2731 17.7318 13.3015 17.6009C13.319 17.5203 13.3399 17.4404 13.3632 17.3609C13.3716 17.3319 13.3754 17.3026 13.3762 17.2728C13.3792 17.157 13.3983 17.0421 13.4323 16.9315C13.4554 16.8564 13.4806 16.781 13.507 16.7065C13.5142 16.6859 13.5177 16.6664 13.5182 16.6465C13.5207 16.5438 13.5333 16.4412 13.5556 16.3409C13.5608 16.3173 13.5631 16.2918 13.5612 16.264C13.5507 16.1112 13.5793 15.9633 13.6434 15.8272C13.6327 15.6454 13.6823 15.471 13.791 15.3228L13.9311 15.1672C13.9823 15.1212 14.0384 15.0802 14.0993 15.0453C14.1841 14.9967 14.2732 14.9558 14.3646 14.9215C14.4819 14.8775 14.6037 14.854 14.727 14.8484L14.8615 14.8522C14.9498 14.8626 15.0352 14.8881 15.1156 14.9272L15.2333 14.9965L15.3734 15.0847C15.4349 15.118 15.4977 15.1519 15.5603 15.184C15.6365 15.2232 15.7114 15.265 15.7845 15.3097C15.8427 15.3453 15.9025 15.3791 15.9619 15.4128C15.9969 15.4325 16.0343 15.45 16.0759 15.4634C16.1816 15.4973 16.2832 15.5434 16.3786 15.6003C16.4104 15.6193 16.4462 15.6346 16.4851 15.6472C16.6177 15.6902 16.7382 15.7593 16.8438 15.8515C16.8743 15.8782 16.9072 15.9007 16.9409 15.919C16.9708 15.9353 17.005 15.9482 17.0437 15.9584C17.1597 15.9891 17.2709 16.0367 17.3744 16.099C17.474 16.1591 17.5648 16.231 17.6453 16.3146C17.7187 16.3397 17.7912 16.367 17.8639 16.3934C17.9981 16.4421 18.1183 16.5175 18.2207 16.6165C18.223 16.6188 18.226 16.6201 18.2263 16.6203L18.2301 16.6221C18.3129 16.6498 18.3949 16.6804 18.4748 16.714C18.5748 16.7561 18.67 16.809 18.7588 16.8715C18.7938 16.8961 18.831 16.9175 18.8709 16.9353C18.9539 16.9724 19.0354 17.0137 19.1138 17.059C19.1667 17.0896 19.2208 17.1186 19.2763 17.1453C19.3685 17.1895 19.4568 17.241 19.5397 17.3009C19.5547 17.3117 19.5732 17.3205 19.5958 17.3271C19.6975 17.3572 19.7954 17.398 19.8891 17.4471C19.9925 17.5014 20.0873 17.5688 20.1731 17.6478C20.1934 17.6664 20.2148 17.679 20.2366 17.689C20.2527 17.6964 20.271 17.702 20.2945 17.704C20.3487 17.7085 20.4011 17.7093 20.4514 17.7115C20.4656 17.7021 20.4802 17.6933 20.4944 17.6834C20.4571 17.6374 20.4208 17.5913 20.3861 17.5446C20.3282 17.4667 20.2761 17.3849 20.231 17.299C20.1942 17.2289 20.1584 17.1575 20.1245 17.0853C20.1103 17.0549 20.0932 17.0269 20.0722 17.0009C20.0378 16.9586 20.0003 16.9169 19.9601 16.8771C19.8581 16.7764 19.7808 16.6554 19.7303 16.5209C19.7273 16.513 19.7225 16.5076 19.7172 16.5021C19.6388 16.4209 19.5713 16.3306 19.5154 16.2321C19.511 16.2244 19.5035 16.2155 19.4893 16.204C19.3634 16.1026 19.2685 15.9708 19.2128 15.8159C19.2097 15.8074 19.2061 15.8021 19.2016 15.7972C19.1439 15.7358 19.0883 15.6725 19.0353 15.6078C18.9646 15.5215 18.9057 15.4273 18.8578 15.3265C18.8415 15.2921 18.821 15.2603 18.798 15.2309C18.7677 15.1921 18.7344 15.1544 18.6971 15.1184C18.6284 15.052 18.5633 14.9812 18.5047 14.9065C18.4606 14.8504 18.4165 14.7937 18.372 14.7378C18.3109 14.6609 18.2555 14.5798 18.2076 14.494C18.175 14.4355 18.1412 14.377 18.1067 14.3197C18.0753 14.2675 18.0427 14.2157 18.0077 14.1659C17.9585 14.0959 17.9109 14.0242 17.8676 13.9503C17.8545 13.9279 17.8391 13.9055 17.8172 13.8847C17.7458 13.8169 17.6788 13.7447 17.6191 13.6672C17.5552 13.5842 17.5008 13.4951 17.4547 13.4009C17.4358 13.3623 17.4127 13.326 17.3875 13.2922C17.3349 13.2219 17.2853 13.1497 17.2399 13.0747C17.2201 13.0421 17.1982 13.0102 17.1707 12.9809C17.1028 12.9086 17.0408 12.8307 16.9858 12.7484C16.9437 12.6856 16.9013 12.6228 16.8606 12.5591C16.8389 12.5251 16.8135 12.4923 16.784 12.4616C16.7278 12.4029 16.6725 12.3426 16.6196 12.2816C16.5441 12.1945 16.4809 12.0986 16.4309 11.9947C16.4038 11.9385 16.3751 11.883 16.3449 11.8297C16.3163 11.7792 16.2857 11.7306 16.2534 11.6834C16.1705 11.5627 16.1182 11.4245 16.1002 11.2766C16.0877 11.1733 16.0859 11.0694 16.0946 10.9653L16.1301 10.7966C16.184 10.6373 16.2926 10.5093 16.4346 10.4235L16.4869 10.3785C16.5802 10.268 16.6946 10.182 16.8232 10.1216C16.8427 10.1124 16.8566 10.1013 16.8681 10.0897C16.9472 10.0103 17.0358 9.94171 17.1315 9.88347C17.1853 9.8507 17.2376 9.81627 17.2884 9.78034C17.3315 9.74991 17.3731 9.71664 17.4117 9.68097C17.4921 9.60679 17.5805 9.54247 17.6752 9.48784C17.7145 9.46512 17.7503 9.43918 17.7835 9.41097C17.8116 9.38707 17.8393 9.35929 17.8639 9.3266C17.9356 9.23117 18.0185 9.14535 18.1142 9.07347C18.1992 9.0097 18.2908 8.95606 18.387 8.91035C18.4338 8.88809 18.4776 8.86266 18.5178 8.83535C18.5778 8.79453 18.6373 8.75275 18.6971 8.7116C18.7387 8.68299 18.778 8.65195 18.8148 8.61785C18.8914 8.54694 18.9745 8.48342 19.0633 8.42848C19.1212 8.3927 19.179 8.35558 19.2352 8.31786C19.2622 8.29967 19.2876 8.2793 19.3099 8.25411C19.3845 8.16985 19.4677 8.09485 19.5603 8.03099C19.6132 7.99453 19.6649 7.95587 19.7153 7.91661C19.8036 7.84792 19.8993 7.7895 20.0012 7.74411C20.077 7.64683 20.1687 7.56323 20.2721 7.49474C20.3197 7.46317 20.365 7.4292 20.4085 7.39349C20.4597 7.35142 20.5106 7.30824 20.5598 7.26412C20.6132 7.21632 20.666 7.16772 20.7186 7.11975C20.7919 7.05297 20.8725 6.99532 20.9578 6.94537C20.9693 6.92294 20.9828 6.90169 20.9951 6.87975C20.9883 6.87284 20.9813 6.86609 20.9746 6.85912C20.9627 6.8598 20.9509 6.85893 20.9391 6.861C20.849 6.87699 20.757 6.88806 20.6663 6.89475C20.6033 6.89941 20.5402 6.90634 20.4776 6.91537C20.3928 6.92759 20.3073 6.93719 20.2216 6.9435C20.1567 6.94829 20.0918 6.95538 20.0273 6.96412C19.94 6.97596 19.8522 6.98401 19.7639 6.9885C19.7084 6.99131 19.6533 6.9977 19.5995 7.00725C19.5452 7.01688 19.4905 7.02836 19.437 7.04475C19.349 7.07165 19.2598 7.09494 19.1698 7.11225C19.0684 7.13172 18.9651 7.14104 18.8615 7.14225C18.82 7.14276 18.7804 7.14836 18.742 7.15725C18.6723 7.17344 18.6022 7.19033 18.5327 7.20787C18.4703 7.22364 18.4077 7.24228 18.3459 7.26224C18.2575 7.29077 18.1676 7.31338 18.0769 7.33162C17.984 7.35024 17.8894 7.36408 17.7947 7.37099C17.731 7.37565 17.6669 7.38254 17.6042 7.39162C17.5416 7.40069 17.4791 7.41193 17.4173 7.42537C17.3604 7.43778 17.3036 7.45216 17.2473 7.47037C17.1194 7.51186 16.9865 7.52966 16.8531 7.52287C16.8337 7.52186 16.8173 7.52378 16.8027 7.52849C16.7168 7.55646 16.6289 7.58013 16.5411 7.59974C16.4356 7.62327 16.328 7.63594 16.2198 7.63724C16.1952 7.6376 16.173 7.64265 16.1506 7.65036C16.0337 7.69088 15.9118 7.71221 15.7882 7.71599C15.7032 7.71858 15.6178 7.71841 15.5322 7.71599C15.5207 7.71567 15.5121 7.71774 15.5023 7.72161C15.3822 7.76964 15.2563 7.79674 15.1268 7.80224C15.1115 7.80288 15.0951 7.80609 15.0782 7.81349C14.9545 7.8676 14.8233 7.89808 14.6878 7.90349C14.6259 7.90596 14.5625 7.91249 14.4991 7.92036C14.3268 7.94156 14.1564 7.90965 14.0021 7.82849C13.8856 7.76715 13.7805 7.68564 13.692 7.58287C13.6382 7.52047 13.585 7.45653 13.535 7.38974C13.4517 7.27824 13.3941 7.15134 13.3632 7.01475C13.3438 6.92925 13.3286 6.84331 13.3183 6.75787C13.3139 6.72104 13.3086 6.67992 13.3071 6.6435V6.606C13.2787 6.48956 13.2686 6.37095 13.2753 6.25163C13.2757 6.24481 13.2741 6.23977 13.2716 6.23288C13.2406 6.14792 13.2142 6.06144 13.1931 5.97413C13.1673 5.86725 13.1556 5.75782 13.1558 5.64789L13.1446 5.50539C13.1377 5.45964 13.1269 5.41418 13.1128 5.36852C13.082 5.26898 13.0613 5.16653 13.0511 5.06289C13.0422 4.97131 13.0431 4.87927 13.0493 4.78727C12.9917 4.66859 12.9548 4.54035 12.9484 4.40478C12.9468 4.37254 12.9409 4.34105 12.9316 4.30915C12.8937 4.18101 12.8823 4.0477 12.8942 3.91541C12.8963 3.89179 12.8947 3.871 12.8905 3.85166C12.8747 3.78184 12.8575 3.71148 12.8419 3.64166C12.8285 3.58168 12.8142 3.52131 12.7971 3.46166C12.7611 3.33685 12.7568 3.20978 12.7728 3.08479C12.7131 2.95862 12.6818 2.82101 12.6868 2.67604L12.6775 2.60667C12.6461 2.49113 12.6401 2.37345 12.6495 2.25605C12.5897 2.14078 12.5496 2.01591 12.5411 1.88105C12.5373 1.82139 12.5305 1.76188 12.5224 1.70293C12.5148 1.64757 12.5053 1.59252 12.4925 1.53793C12.4675 1.43076 12.4569 1.32139 12.4589 1.21169C12.4234 1.13845 12.3902 1.06475 12.3599 0.990439C12.3563 0.981679 12.3506 0.973073 12.3468 0.964189C12.3349 0.963344 12.3231 0.96314 12.3113 0.962314C12.3036 0.98024 12.296 0.998848 12.2889 1.01669ZM20.0012 7.74786C19.9977 7.75073 19.9949 7.75385 19.9937 7.75536C19.9953 7.75334 19.9959 7.74988 19.9975 7.74786H20.0012ZM14.1366 6.92475C14.1386 6.9226 14.1422 6.92125 14.1441 6.91912C14.1483 6.91439 14.1514 6.90883 14.1553 6.90412C14.1496 6.91122 14.143 6.91772 14.1366 6.92475ZM14.2244 6.79162C14.2141 6.81452 14.198 6.83922 14.1796 6.86662C14.1996 6.83713 14.2155 6.81197 14.2244 6.79162ZM13.3277 6.471C13.3262 6.47655 13.327 6.48253 13.3258 6.48788C13.3294 6.47308 13.3327 6.45655 13.3389 6.43913C13.3346 6.45148 13.3299 6.46266 13.3277 6.471ZM13.4117 6.30225C13.3821 6.34054 13.3614 6.37776 13.3482 6.40913C13.3584 6.3855 13.3818 6.34106 13.4211 6.29288C13.4183 6.2963 13.4144 6.29885 13.4117 6.30225Z" fill="#1B1B1B" style="fill:#1B1B1B;fill:color(display-p3 0.1059 0.1059 0.1059);fill-opacity:1;"/>
</svg>
