<svg width="24" height="24" viewBox="0 0 24 24" fill="none" xmlns="http://www.w3.org/2000/svg">
<path fill-rule="evenodd" clip-rule="evenodd" d="M10.042 1.25L10.6 1.25C11.7661 1.25 12.7042 1.46525 13.4003 1.96411C14.1189 2.4791 14.4708 3.21681 14.6164 4.02134C14.7581 4.80438 14.7142 5.69823 14.6121 6.61656C14.5457 7.21342 14.4487 7.86401 14.3493 8.53102C14.3384 8.60383 14.3276 8.67684 14.3167 8.75H22.75L22.75 9.59175C22.7501 12.2759 22.7502 15.2641 21.8698 17.5805C21.4149 18.7774 20.7113 19.8384 19.6218 20.5936C18.5326 21.3484 17.1263 21.75 15.35 21.75H2.25V20.25H8.59922L7.12554 12.25H2.25V10.75H7.19198L10.042 1.25ZM8.52038 11.5421L10.1245 20.25H15.35C16.8987 20.25 17.9862 19.9021 18.7673 19.3607C19.5481 18.8196 20.0914 18.0376 20.4677 17.0475C21.1705 15.1985 21.242 12.7787 21.2492 10.25H12.588L12.7072 9.39631C12.762 9.00408 12.8179 8.62905 12.8718 8.26826C12.9682 7.62241 13.0577 7.02222 13.1213 6.45075C13.2199 5.56406 13.2418 4.84876 13.1404 4.2885C13.0429 3.74972 12.8427 3.40997 12.5265 3.18333C12.255 2.98878 11.829 2.82777 11.1516 2.77148L8.52038 11.5421Z" fill="#431269" style="fill:#431269;fill:color(display-p3 0.2644 0.0692 0.4108);fill-opacity:1;"/>
</svg>
