<svg width="24" height="24" viewBox="0 0 24 24" fill="none" xmlns="http://www.w3.org/2000/svg">
<path d="M22.75 12C22.75 6.06294 17.9371 1.25 12 1.25H11.25V2.75H12C17.1086 2.75 21.25 6.89137 21.25 12C21.25 17.1086 17.1086 21.25 12 21.25H11.25V22.75H12C17.9371 22.75 22.75 17.9371 22.75 12Z" fill="#0C546E" style="fill:#0C546E;fill:color(display-p3 0.0472 0.3305 0.4328);fill-opacity:1;"/>
<path d="M8.79244 3.32105L9.4959 3.06096L8.97573 1.65404L8.27227 1.91413C7.07554 2.35659 5.97966 3.0056 5.02775 3.81744L4.4571 4.30412L5.43046 5.44542L6.00111 4.95874C6.82099 4.25951 7.76395 3.7013 8.79244 3.32105Z" fill="#0C546E" style="fill:#0C546E;fill:color(display-p3 0.0472 0.3305 0.4328);fill-opacity:1;"/>
<path d="M3.95708 7.42773L4.32838 6.7761L3.02511 6.03348L2.6538 6.68512C2.05034 7.74419 1.62147 8.91615 1.40676 10.1613L1.27932 10.9004L2.7575 11.1553L2.88495 10.4162C3.06951 9.34592 3.43804 8.33862 3.95708 7.42773Z" fill="#0C546E" style="fill:#0C546E;fill:color(display-p3 0.0472 0.3305 0.4328);fill-opacity:1;"/>
<path fill-rule="evenodd" clip-rule="evenodd" d="M17.25 11.2865L10.1771 7.75H8.75001V16.25H10.1771L17.25 12.7135V11.2865ZM15.323 12L10.25 9.46353V14.5365L15.323 12Z" fill="#0C546E" style="fill:#0C546E;fill:color(display-p3 0.0472 0.3305 0.4328);fill-opacity:1;"/>
<path d="M2.88492 13.5836L2.75749 12.8445L1.2793 13.0994L1.40673 13.8385C1.62142 15.0837 2.05026 16.2556 2.65371 17.3147L3.02501 17.9664L4.32829 17.2238L3.957 16.5721C3.43798 15.6612 3.06945 14.6539 2.88492 13.5836Z" fill="#0C546E" style="fill:#0C546E;fill:color(display-p3 0.0472 0.3305 0.4328);fill-opacity:1;"/>
<path d="M6.00102 19.0412L5.43038 18.5545L4.457 19.6958L5.02765 20.1825C5.97957 20.9943 7.07545 21.6434 8.2722 22.0858L8.97566 22.3459L9.49584 20.939L8.79238 20.6789C7.76387 20.2987 6.82091 19.7404 6.00102 19.0412Z" fill="#0C546E" style="fill:#0C546E;fill:color(display-p3 0.0472 0.3305 0.4328);fill-opacity:1;"/>
</svg>
